<svg width="1440" height="1326" viewBox="0 0 1440 1326" fill="none" xmlns="http://www.w3.org/2000/svg">
<g clip-path="url(#clip0_28_33)">
<path d="M31.5247 1316.37C-18.8354 1290.26 -99.5597 1238.05 -116.038 1034.95C-123.444 943.491 -111.779 847.957 -63.8263 769.087C-59.6943 762.362 -54.785 756.148 -49.1996 750.572C20.4159 681.144 86.6987 771.864 120.396 820.371C165.757 885.911 195.565 960.339 240.001 1026.62C274.623 1078.27 314.06 1126.97 359.051 1169.92C411.818 1220.65 472.546 1263.6 540.495 1291.37C594.365 1313.52 652.031 1324.96 710.275 1325.07C1140.56 1325.07 1324.97 747.24 1515.48 353.812C1554.92 272.35 1601.76 192.924 1662.49 125.347C1698.59 84.9858 1740.62 48.3277 1789.5 24.2592C1828.01 5.18951 1870.97 -3.69732 1914.47 3.33809C2068.52 27.7769 2063.89 206.254 2064.07 220.14" stroke="url(#paint0_linear_28_33)" stroke-width="1.33354" stroke-miterlimit="10"/>
<path d="M41.5229 1292.11C-6.43028 1267.3 -83.2665 1216.58 -95.6714 1024.03C-101.411 937.196 -88.8209 846.661 -41.4231 771.864C-37.4738 765.445 -32.7477 759.537 -27.3519 754.275C40.2269 688.55 104.473 775.011 137.8 821.482C182.235 884.245 212.044 955.34 255.553 1018.66C289.339 1068.32 328.316 1114.25 371.826 1155.66C423.482 1203.99 482.544 1245.09 548.457 1271.56C600.687 1292.75 656.505 1303.68 712.868 1303.78C920.418 1303.59 1069.83 1166.59 1190.73 982C1311.63 797.413 1405.69 560.061 1499.93 368.809C1538.81 290.123 1584.36 213.289 1643.23 147.749C1678.41 108.684 1718.96 73.1367 1765.99 49.4385C1803.2 30.7391 1844.67 21.8523 1886.7 27.7769C2035.38 48.8831 2033.52 217.177 2033.9 230.508" stroke="url(#paint1_linear_28_33)" stroke-width="1.33354" stroke-miterlimit="10"/>
<path d="M52.8168 1265.27C7.27055 1241.75 -66.7885 1195.1 -75.3052 1013.1C-79.3785 930.901 -65.8627 845.365 -19.2055 774.641C-15.2008 768.595 -10.5442 763.007 -5.31948 757.978C60.2227 695.955 122.432 778.159 155.018 822.593C198.898 882.394 228.337 950.341 271.106 1010.7C304.338 1058.06 342.439 1101.8 384.786 1141.22C434.961 1187.32 492.357 1226.57 556.233 1251.75C606.897 1271.92 660.929 1282.29 715.46 1282.3C916.53 1282.12 1062.24 1151.22 1180.37 974.039C1298.49 796.858 1391.62 568.763 1484.56 383.991C1522.52 307.897 1566.95 233.655 1623.98 170.336C1658.05 132.382 1697.3 97.9458 1742.66 74.6179C1778.58 56.2888 1818.38 47.2168 1858.75 52.4008C2002.05 70.3596 2001.68 228.471 2002.05 241.616" stroke="url(#paint2_linear_28_33)" stroke-width="1.33354" stroke-miterlimit="10"/>
<path d="M62.9998 1241.2C19.8604 1218.8 -49.9402 1173.81 -54.9392 1002C-57.161 924.791 -42.7195 844.069 3.01196 777.418C7.01431 771.706 11.6066 766.431 16.7129 761.681C80.0333 703.546 140.391 781.306 172.422 823.889C215.561 880.727 244.629 945.342 286.658 1002.74C319.278 1047.89 356.508 1089.52 397.746 1126.97C446.625 1170.66 502.355 1208.06 564.009 1231.94C613.121 1251.06 665.35 1260.91 718.052 1261.01C912.642 1260.64 1054.46 1135.67 1170 966.263C1285.53 796.858 1377.55 577.464 1469.01 398.987C1506.22 325.671 1549.73 254.021 1604.72 192.924C1637.86 156.08 1675.63 122.57 1719.33 99.9823C1753.95 81.8384 1792.28 72.7664 1830.97 76.8396C1968.72 91.6509 1969.83 240.69 1970.02 252.725" stroke="url(#paint3_linear_28_33)" stroke-width="1.33354" stroke-miterlimit="10"/>
<path d="M72.6275 1218.06C31.895 1196.95 -33.4621 1152.33 -34.5729 991.072C-35.1284 918.496 -19.7611 842.773 25.4149 780.195C29.1928 774.809 33.6065 769.898 38.5603 765.569C100.029 710.952 158.166 784.639 189.826 825C232.039 878.876 261.108 940.343 302.21 994.775C334.228 1037.65 370.586 1077.11 410.707 1112.53C458.29 1154.18 512.353 1189.54 571.97 1212.13C619.5 1230.3 669.945 1239.65 720.829 1239.72C908.754 1239.16 1046.69 1120.3 1159.81 958.487C1272.94 796.673 1363.48 586.166 1453.46 413.984C1490.12 343.444 1532.33 274.572 1585.65 215.326C1617.5 179.964 1653.97 147.379 1696 125.162C1729.33 107.388 1765.99 98.1309 1803.2 101.463C1935.4 112.942 1937.8 252.354 1937.8 263.648" stroke="url(#paint4_linear_28_33)" stroke-width="1.33354" stroke-miterlimit="10"/>
<path d="M83.1811 1193.62C44.8556 1173.81 -16.7985 1130.85 -14.2065 980.149C-13.0956 912.202 3.19739 841.477 47.6328 782.972C51.4631 777.966 55.8069 773.374 60.5931 769.272C119.84 718.358 175.94 787.786 207.23 826.11C248.518 877.21 277.401 935.344 317.578 986.814C349.084 1027.4 384.561 1064.73 423.482 1098.27C469.954 1137.52 522.351 1170.85 579.747 1192.32C625.706 1209.47 674.366 1218.25 723.421 1218.24C904.681 1217.69 1039.1 1104.75 1149.45 950.526C1259.79 796.302 1349.4 594.683 1437.91 428.98C1473.82 361.218 1514.93 294.937 1566.4 237.913C1597.32 203.662 1632.5 172.188 1672.67 150.341C1704.52 132.938 1739.7 123.681 1775.24 125.902C1902.26 134.234 1906.14 263.278 1906.51 274.571" stroke="url(#paint5_linear_28_33)" stroke-width="1.33354" stroke-miterlimit="10"/>
<path d="M93.364 1168.99C57.4454 1150.29 -0.32059 1109.56 6.15957 969.225C9.12193 905.907 26.3407 840.181 69.8503 785.749C73.633 781.041 77.9166 776.757 82.6255 772.975C139.651 725.763 193.714 790.933 224.634 827.406C265.181 875.358 293.694 930.345 333.13 978.853C364.03 1017.16 398.635 1052.32 436.442 1083.83C481.618 1120.86 532.164 1152.33 587.708 1172.51C632.017 1188.71 678.834 1196.99 726.013 1196.95C900.792 1196.21 1031.32 1089.38 1139.08 942.75C1246.83 796.117 1335.7 603.569 1422.35 443.977C1457.72 379.177 1497.52 315.303 1547.14 260.316C1576.95 227.36 1610.83 196.997 1649.16 175.52C1679.89 158.487 1713.4 149.045 1747.47 150.526C1868.93 155.525 1874.3 275.127 1874.67 285.495" stroke="url(#paint6_linear_28_33)" stroke-width="1.33354" stroke-miterlimit="10"/>
<path d="M103.362 1145.48C69.8505 1128.08 16.1577 1088.09 26.526 958.302C31.1547 899.797 49.2991 838.885 92.2533 788.526C95.9094 784.224 100.005 780.314 104.473 776.862C159.647 733.354 211.673 794.081 241.852 828.517C281.659 873.507 310.172 925.347 348.683 970.892C379.02 1006.93 412.748 1039.98 449.403 1069.57C493.098 1104.19 542.162 1133.82 595.484 1152.7C638.224 1167.87 683.254 1175.57 728.605 1175.47C896.904 1174.73 1023.55 1074.02 1128.89 934.974C1234.24 795.932 1321.63 612.271 1406.99 458.973C1441.42 396.951 1480.3 335.668 1527.89 282.903C1556.77 251.058 1589.17 221.806 1625.83 200.885C1655.27 184.037 1687.3 174.41 1719.51 174.965C1835.79 176.816 1842.08 286.606 1842.64 296.418" stroke="url(#paint7_linear_28_33)" stroke-width="1.33354" stroke-miterlimit="10"/>
<path d="M114.471 1119.93C83.1812 1103.82 32.8211 1066.8 46.8923 947.379C53.1873 893.502 72.2575 837.589 114.471 791.304C118.13 787.348 122.16 783.752 126.506 780.565C179.458 740.76 229.448 797.413 259.257 829.628C298.137 871.841 326.465 920.348 364.235 962.931C393.944 996.643 426.734 1027.51 462.178 1055.13C504.762 1087.72 551.975 1115.3 603.446 1132.89C644.531 1147.11 687.72 1154.31 731.198 1154.18C893.016 1153.26 1015.95 1058.46 1118.53 927.013C1221.1 795.562 1307.56 620.973 1391.43 474.155C1425.32 414.724 1462.9 356.219 1508.82 305.49C1536.4 274.757 1567.69 246.43 1602.5 226.064C1629.62 210.039 1660.27 200.945 1691.74 199.589C1802.46 194.775 1815.98 297.344 1816.35 306.971" stroke="url(#paint8_linear_28_33)" stroke-width="1.33354" stroke-miterlimit="10"/>
<path d="M124.839 1096.42C95.9565 1081.61 49.2993 1045.32 67.2586 936.455C75.4051 887.392 95.2159 836.293 136.689 794.266C140.341 790.595 144.305 787.25 148.538 784.268C199.269 748.165 247.222 800.561 276.66 830.924C314.616 869.989 342.758 915.349 379.788 954.969C408.795 986.488 440.721 1015.19 475.139 1040.69C516.426 1071.24 561.973 1096.79 611.222 1113.08C650.802 1126.27 692.256 1132.96 733.975 1132.89C889.128 1131.78 1008.18 1043.1 1108.16 919.237C1208.14 795.377 1293.68 629.674 1375.88 489.151C1409.02 432.498 1445.5 376.585 1489.56 327.893C1516.22 298.455 1546.03 271.239 1579.17 251.244C1605.83 235.136 1634.9 225.324 1663.79 224.028C1769.32 219.214 1783.58 309.008 1784.87 318.265" stroke="url(#paint9_linear_28_33)" stroke-width="1.33354" stroke-miterlimit="10"/>
<path d="M135.763 1070.31C109.472 1056.61 65.9625 1024.03 87.6248 925.532C97.4376 881.098 118.174 834.997 159.092 797.043C162.524 793.681 166.311 790.702 170.386 788.156C219.079 755.571 264.996 803.708 294.064 832.035C331.279 868.323 359.051 910.165 395.34 947.008C423.827 976.199 454.871 1002.78 488.099 1026.43C527.905 1054.58 571.971 1078.27 619.183 1093.27C657.096 1105.53 696.723 1111.65 736.567 1111.41C885.24 1110.3 1000.4 1027.73 1097.97 911.461C1195.55 795.192 1279.6 638.191 1360.33 504.148C1392.73 450.272 1428.28 396.951 1470.31 350.48C1496.04 322.153 1524.37 296.048 1555.84 276.423C1581.21 260.686 1608.61 250.688 1636.01 248.466C1736.18 240.505 1752.66 319.931 1754.14 330.299" stroke="url(#paint10_linear_28_33)" stroke-width="1.33354" stroke-miterlimit="10"/>
<path d="M145.761 1047.17C121.692 1034.77 82.4404 1002.74 107.991 914.608C119.47 874.988 141.317 833.701 181.309 799.82C184.78 796.856 188.496 794.193 192.418 791.859C238.89 762.977 282.77 806.856 311.468 833.146C347.757 866.471 375.529 905.166 410.892 939.047C438.697 965.945 468.806 990.354 500.874 1011.99C539.57 1037.91 581.783 1059.76 626.959 1073.46C663.299 1084.66 701.131 1090.28 739.159 1090.12C881.167 1088.83 992.996 1012.36 1087.61 903.5C1182.22 794.636 1265.53 646.893 1344.78 519.144C1376.62 468.045 1410.87 417.501 1451.05 373.067C1475.68 345.851 1502.71 320.672 1532.33 301.787C1556.58 286.235 1582.32 276.238 1608.06 273.09C1702.85 261.612 1722.48 334.002 1723.77 341.593" stroke="url(#paint11_linear_28_33)" stroke-width="1.33354" stroke-miterlimit="10"/>
<path d="M156.314 1022.36C134.652 1011.07 98.9184 981.445 128.357 903.685C143.279 863.47 169.434 828.384 203.712 802.597C207.089 799.957 210.681 797.603 214.45 795.562C258.516 770.383 300.544 810.188 328.686 834.442C364.05 864.805 391.822 900.167 426.444 931.086C453.716 955.639 482.943 977.93 513.834 997.737C551.234 1021.44 591.781 1041.25 634.92 1053.65C669.605 1063.85 705.599 1068.9 741.75 1068.65C877.278 1067.35 985.219 996.997 1077.24 895.724C1169.26 794.451 1251.46 655.594 1329.41 534.141C1360.33 485.819 1393.47 437.867 1431.8 395.469C1455.49 369.55 1481.04 345.481 1509 326.967C1531.96 311.785 1556.21 301.602 1580.28 297.529C1669.71 282.718 1691.93 345.481 1693.22 352.702" stroke="url(#paint12_linear_28_33)" stroke-width="1.33354" stroke-miterlimit="10"/>
<path d="M166.312 997.922C147.242 987.925 115.397 960.153 148.723 892.761C166.189 857.258 192.849 827.083 225.93 805.374C229.271 803.149 232.732 801.109 236.298 799.265C278.326 777.788 318.318 813.335 346.09 835.553C380.528 863.139 408.115 895.168 441.812 923.125C468.517 945.381 496.932 965.5 526.794 983.296C562.898 1004.77 601.779 1022.55 642.697 1033.84C675.843 1043.08 710.12 1047.63 744.528 1047.36C873.391 1045.87 977.629 981.63 1067.05 887.948C1156.48 794.266 1237.39 664.296 1313.86 549.137C1344.04 503.592 1376.07 458.233 1412.73 418.057C1435.13 393.248 1459.38 370.29 1485.67 352.146C1507.15 337.335 1529.92 326.967 1552.33 322.153C1636.57 303.824 1657.68 358.256 1659.16 365.106" stroke="url(#paint13_linear_28_33)" stroke-width="1.33354" stroke-miterlimit="10"/>
<path d="M175.755 976.261C158.906 967.559 131.875 939.047 169.089 881.653C189.153 851.157 216.272 825.944 248.147 808.152C251.295 806.3 254.813 804.819 258.33 803.153C297.952 785.194 336.092 816.668 363.494 836.664C397.006 861.287 424.593 890.17 457.364 915.164C483.436 935.073 510.909 953.079 539.569 969.04C574.562 988.11 611.777 1004.03 650.658 1014.03C682.14 1022.26 714.581 1026.25 747.12 1025.88C869.502 1024.4 969.852 966.078 1056.69 879.987C1143.52 793.896 1223.32 672.998 1298.3 564.319C1327.93 521.366 1358.85 478.598 1393.47 440.459C1414.95 416.946 1437.9 394.914 1462.34 377.326C1481.14 363.547 1502.19 353.147 1524.55 346.592C1603.43 324.93 1624.72 374.178 1626.01 378.251" stroke="url(#paint14_linear_28_33)" stroke-width="1.33354" stroke-miterlimit="10"/>
<path d="M185.938 954.599C171.682 947.008 148.168 923.865 189.456 876.839C207.6 856.289 232.966 828.517 270.551 810.929C273.745 809.394 277.021 808.035 280.363 806.856C317.578 792.6 353.867 819.816 380.899 837.959C413.484 859.621 440.886 885.171 472.917 907.203C498.327 924.823 524.929 940.66 552.53 954.599C586.042 971.447 621.59 985.518 658.435 994.219C688.321 1001.4 718.977 1004.88 749.712 1004.59C865.615 1002.92 962.077 950.711 1046.32 872.211C1130.56 793.71 1209.25 681.514 1282.75 579.316C1311.63 539.14 1341.44 499.149 1374.21 463.046C1394.58 440.644 1416.24 419.723 1439.02 402.69C1456.38 389.158 1475.83 378.529 1496.6 371.216C1570.29 345.851 1590.1 387.693 1591.21 391.026" stroke="url(#paint15_linear_28_33)" stroke-width="1.33354" stroke-miterlimit="10"/>
<path d="M320.355 807.411C360.162 808.337 371.641 823.148 398.302 839.07C429.777 857.955 457.179 880.172 488.469 899.242C513.256 914.543 538.98 928.271 565.49 940.343C597.748 955.27 631.515 966.691 666.211 974.409C694.479 980.622 723.362 983.604 752.304 983.296C861.726 981.445 954.3 935.159 1036.14 864.25C1117.97 793.34 1194.99 690.216 1267.2 594.312C1295.34 556.913 1324.04 519.515 1354.96 485.634C1373.6 464.826 1393.84 445.512 1415.5 427.869C1431.77 414.814 1449.7 403.98 1468.82 395.655C1537.14 366.772 1562.88 398.617 1563.99 401.394" stroke="url(#paint16_linear_28_33)" stroke-width="1.33354" stroke-miterlimit="10"/>
<path d="M341.277 812.78C372.382 809.633 389.23 826.295 415.521 840.181C446.255 856.289 473.657 875.173 504.021 891.28C528.151 904.231 553.001 915.79 578.451 925.902C609.347 938.562 641.407 948.173 674.172 954.599C700.817 959.814 727.934 962.233 755.082 961.82C857.653 959.968 946.709 919.792 1025.77 856.474C1104.83 793.155 1180.92 698.918 1251.83 609.309C1279.05 574.687 1306.64 539.88 1335.7 508.036C1353.31 488.497 1372.17 470.129 1392.17 453.049C1407.15 440.371 1423.48 429.382 1440.87 420.278C1504 387.693 1532.89 409.54 1534 413.243" stroke="url(#paint17_linear_28_33)" stroke-width="1.33354" stroke-miterlimit="10"/>
<path d="M356.459 816.483C387.564 813.891 407.004 829.628 432.925 841.477C462.549 854.807 489.95 870.174 519.574 883.319C542.903 893.687 566.787 903.315 591.226 911.646C620.797 921.783 651.135 929.522 681.948 934.789C706.968 938.958 732.311 940.879 757.674 940.528C853.765 938.492 938.933 904.24 1015.4 848.698C1091.86 793.155 1166.85 707.434 1236.28 624.305C1262.76 592.461 1289.42 560.246 1316.63 530.623C1333.85 511.924 1351.26 493.965 1368.85 478.228C1382.63 465.841 1397.44 454.632 1413.1 444.717C1449.75 421.574 1468.64 419.168 1483.82 417.501C1491.23 416.576 1501.41 417.501 1505.85 423.796" stroke="url(#paint18_linear_28_33)" stroke-width="1.33354" stroke-miterlimit="10"/>
<path d="M375.529 820.926C404.227 819.63 424.593 833.146 450.328 842.588C479.026 853.141 506.243 865.175 535.126 875.358C557.714 883.504 580.857 890.91 604.186 897.205C632.322 905.075 660.963 911.013 689.909 914.979C713.213 918.229 736.742 919.591 760.265 919.052C849.877 917.015 930.971 888.688 1005.22 840.737C1079.46 792.785 1152.59 716.136 1220.73 639.302C1246.65 610.234 1272.01 580.797 1297.38 553.211C1313.49 535.622 1329.59 518.774 1345.52 503.593C1358.12 491.496 1371.35 480.063 1385.14 469.341C1385.14 469.341 1415.69 445.088 1441.98 437.867C1441.98 437.867 1458.46 433.053 1471.97 436.571" stroke="url(#paint19_linear_28_33)" stroke-width="1.33354" stroke-miterlimit="10"/>
<path d="M394.784 825.555C420.335 827.777 442.367 836.478 467.732 843.699C493.097 850.919 522.536 860.176 550.678 867.397C572.711 873.136 594.929 878.506 617.146 882.949C644.363 888.318 671.395 892.576 697.686 895.168C719.335 897.382 741.101 898.248 762.857 897.76C845.989 895.539 923.38 873.322 994.847 832.961C1066.31 792.6 1138.34 724.467 1205.17 654.483C1230.17 628.008 1254.61 601.162 1278.12 575.613C1293.3 559.32 1307.93 543.398 1322.19 528.772C1336.44 514.146 1346.44 504.148 1357.37 493.78C1403.65 449.716 1438.09 448.975 1438.65 449.161" stroke="url(#paint20_linear_28_33)" stroke-width="1.33354" stroke-miterlimit="10"/>
<path d="M201.12 774.641C201.12 774.641 556.603 882.579 765.45 876.284C842.101 874.062 915.604 857.77 984.479 825.185C1168.15 737.983 1394.03 439.348 1395.32 438.052" stroke="url(#paint21_linear_28_33)" stroke-width="1.33354" stroke-miterlimit="10"/>
</g>
<defs>
<linearGradient id="paint0_linear_28_33" x1="513.704" y1="186.259" x2="1306.3" y2="978.894" gradientUnits="userSpaceOnUse">
<stop/>
<stop offset="1" stop-color="white"/>
</linearGradient>
<linearGradient id="paint1_linear_28_33" x1="522.592" y1="203.088" x2="1292.38" y2="972.894" gradientUnits="userSpaceOnUse">
<stop/>
<stop offset="1" stop-color="white"/>
</linearGradient>
<linearGradient id="paint2_linear_28_33" x1="532.071" y1="219.307" x2="1278.64" y2="965.914" gradientUnits="userSpaceOnUse">
<stop/>
<stop offset="1" stop-color="white"/>
</linearGradient>
<linearGradient id="paint3_linear_28_33" x1="540.902" y1="236.136" x2="1264.16" y2="959.433" gradientUnits="userSpaceOnUse">
<stop/>
<stop offset="1" stop-color="white"/>
</linearGradient>
<linearGradient id="paint4_linear_28_33" x1="549.438" y1="253.206" x2="1249.31" y2="953.101" gradientUnits="userSpaceOnUse">
<stop/>
<stop offset="1" stop-color="white"/>
</linearGradient>
<linearGradient id="paint5_linear_28_33" x1="558.455" y1="269.776" x2="1235.33" y2="946.676" gradientUnits="userSpaceOnUse">
<stop/>
<stop offset="1" stop-color="white"/>
</linearGradient>
<linearGradient id="paint6_linear_28_33" x1="567.397" y1="286.347" x2="1220.99" y2="939.936" gradientUnits="userSpaceOnUse">
<stop/>
<stop offset="1" stop-color="white"/>
</linearGradient>
<linearGradient id="paint7_linear_28_33" x1="576.118" y1="303.046" x2="1206.53" y2="933.474" gradientUnits="userSpaceOnUse">
<stop/>
<stop offset="1" stop-color="white"/>
</linearGradient>
<linearGradient id="paint8_linear_28_33" x1="586.246" y1="318.228" x2="1196.07" y2="928.048" gradientUnits="userSpaceOnUse">
<stop/>
<stop offset="1" stop-color="white"/>
</linearGradient>
<linearGradient id="paint9_linear_28_33" x1="594.725" y1="334.928" x2="1181.79" y2="922.012" gradientUnits="userSpaceOnUse">
<stop/>
<stop offset="1" stop-color="white"/>
</linearGradient>
<linearGradient id="paint10_linear_28_33" x1="604.297" y1="350.221" x2="1169.65" y2="915.587" gradientUnits="userSpaceOnUse">
<stop/>
<stop offset="1" stop-color="white"/>
</linearGradient>
<linearGradient id="paint11_linear_28_33" x1="612.666" y1="365.995" x2="1156.34" y2="909.68" gradientUnits="userSpaceOnUse">
<stop/>
<stop offset="1" stop-color="white"/>
</linearGradient>
<linearGradient id="paint12_linear_28_33" x1="621.349" y1="380.454" x2="1143.73" y2="902.848" gradientUnits="userSpaceOnUse">
<stop/>
<stop offset="1" stop-color="white"/>
</linearGradient>
<linearGradient id="paint13_linear_28_33" x1="628.589" y1="394.84" x2="1129.36" y2="895.627" gradientUnits="userSpaceOnUse">
<stop/>
<stop offset="1" stop-color="white"/>
</linearGradient>
<linearGradient id="paint14_linear_28_33" x1="633.828" y1="409.003" x2="1114.83" y2="890.035" gradientUnits="userSpaceOnUse">
<stop/>
<stop offset="1" stop-color="white"/>
</linearGradient>
<linearGradient id="paint15_linear_28_33" x1="639.846" y1="423.593" x2="1099.61" y2="883.351" gradientUnits="userSpaceOnUse">
<stop/>
<stop offset="1" stop-color="white"/>
</linearGradient>
<linearGradient id="paint16_linear_28_33" x1="732.641" y1="394.266" x2="1152.12" y2="813.755" gradientUnits="userSpaceOnUse">
<stop/>
<stop offset="1" stop-color="white"/>
</linearGradient>
<linearGradient id="paint17_linear_28_33" x1="739.085" y1="414.058" x2="1136.46" y2="811.44" gradientUnits="userSpaceOnUse">
<stop/>
<stop offset="1" stop-color="white"/>
</linearGradient>
<linearGradient id="paint18_linear_28_33" x1="741.621" y1="430.258" x2="1120.55" y2="809.199" gradientUnits="userSpaceOnUse">
<stop/>
<stop offset="1" stop-color="white"/>
</linearGradient>
<linearGradient id="paint19_linear_28_33" x1="745.342" y1="450.197" x2="1102.09" y2="806.958" gradientUnits="userSpaceOnUse">
<stop/>
<stop offset="1" stop-color="white"/>
</linearGradient>
<linearGradient id="paint20_linear_28_33" x1="749.434" y1="469.952" x2="1083.89" y2="804.421" gradientUnits="userSpaceOnUse">
<stop/>
<stop offset="1" stop-color="white"/>
</linearGradient>
<linearGradient id="paint21_linear_28_33" x1="583.191" y1="391.841" x2="1026.2" y2="834.862" gradientUnits="userSpaceOnUse">
<stop/>
<stop offset="1" stop-color="white"/>
</linearGradient>
<clipPath id="clip0_28_33">
<rect width="2184" height="1326" fill="white" transform="translate(-119)"/>
</clipPath>
</defs>
</svg>
