<svg width="1440" height="956" viewBox="0 0 1440 956" fill="none" xmlns="http://www.w3.org/2000/svg">
<g opacity="0.2" clip-path="url(#clip0_28_56)">
<path d="M101.417 948.148C65.1443 929.345 7.00215 891.74 -4.86632 745.451C-10.2005 679.574 -1.79919 610.764 32.7394 553.955C35.7154 549.112 39.2514 544.636 43.2743 540.62C93.4153 490.612 141.156 555.955 165.426 590.894C198.098 638.101 219.568 691.709 251.573 739.45C276.51 776.655 304.914 811.727 337.319 842.665C375.325 879.204 419.065 910.142 468.006 930.145C506.805 946.097 548.34 954.341 590.291 954.416C900.205 954.416 1033.02 538.219 1170.25 254.843C1198.65 196.167 1232.39 138.958 1276.13 90.2843C1302.13 61.2132 1332.4 34.8092 1367.61 17.4733C1395.35 3.73783 1426.28 -2.66315 1457.62 2.40429C1568.57 20.007 1565.24 148.56 1565.37 158.561" stroke="url(#paint0_linear_28_56)" stroke-width="1.33354" stroke-miterlimit="10"/>
<path d="M108.618 930.679C74.079 912.81 18.7373 876.271 9.80258 737.583C5.66862 675.04 14.7367 609.83 48.8752 555.955C51.7197 551.332 55.1237 547.077 59.0101 543.287C107.684 495.946 153.958 558.222 177.961 591.694C209.966 636.901 231.436 688.109 262.774 733.716C287.109 769.488 315.182 802.569 346.52 832.397C383.726 867.203 426.266 896.807 473.74 915.877C511.359 931.135 551.562 939.013 592.158 939.08C741.647 938.947 849.264 840.265 936.344 707.312C1023.42 574.358 1091.17 403.399 1159.04 265.644C1187.05 208.969 1219.85 153.627 1262.26 106.42C1287.6 78.2826 1316.8 52.6787 1350.67 35.6095C1377.48 22.1408 1407.35 15.7398 1437.62 20.0071C1544.7 35.2094 1543.37 156.428 1543.64 166.029" stroke="url(#paint1_linear_28_56)" stroke-width="1.33354" stroke-miterlimit="10"/>
<path d="M116.752 911.343C83.9471 894.407 30.6057 860.802 24.4714 729.715C21.5376 670.506 31.2724 608.897 64.8776 557.956C67.762 553.601 71.1159 549.576 74.8791 545.954C122.086 501.28 166.893 560.489 190.363 592.494C221.968 635.567 243.171 684.508 273.976 727.981C297.912 762.092 325.355 793.602 355.855 821.996C391.994 855.201 433.334 883.472 479.341 901.608C515.832 916.134 554.749 923.6 594.025 923.611C738.847 923.478 843.796 829.197 928.876 701.577C1013.96 573.958 1081.03 409.666 1147.98 276.579C1175.31 221.771 1207.32 168.296 1248.39 122.689C1272.93 95.3517 1301.2 70.548 1333.87 53.7454C1359.74 40.5434 1388.41 34.0091 1417.48 37.743C1520.7 50.6783 1520.43 164.562 1520.7 174.03" stroke="url(#paint2_linear_28_56)" stroke-width="1.33354" stroke-miterlimit="10"/>
<path d="M124.087 894.007C93.0153 877.871 42.741 845.466 39.1404 721.714C37.5402 666.105 47.9418 607.963 80.8801 559.956C83.7628 555.842 87.0704 552.043 90.7483 548.621C136.355 506.748 179.829 562.756 202.899 593.428C233.97 634.367 254.907 680.908 285.178 722.247C308.673 754.768 335.488 784.757 365.19 811.727C400.395 843.199 440.535 870.136 484.942 887.339C520.315 901.109 557.933 908.207 595.892 908.275C736.046 908.009 838.195 817.995 921.408 695.977C1004.62 573.958 1070.9 415.934 1136.77 287.381C1163.58 234.573 1194.92 182.965 1234.52 138.958C1258.39 112.421 1285.6 88.284 1317.07 72.0149C1342.01 58.9463 1369.61 52.4119 1397.48 55.3457C1496.7 66.014 1497.5 173.364 1497.63 182.032" stroke="url(#paint3_linear_28_56)" stroke-width="1.33354" stroke-miterlimit="10"/>
<path d="M131.021 877.337C101.683 862.135 54.6094 829.997 53.8092 713.846C53.4092 661.571 64.4775 607.03 97.0158 561.956C99.7369 558.077 102.916 554.539 106.484 551.421C150.757 512.082 192.63 565.157 215.434 594.228C245.838 633.034 266.775 677.307 296.379 716.513C319.44 747.398 345.627 775.819 374.525 801.326C408.797 831.33 447.736 856.801 490.676 873.07C524.909 886.157 561.242 892.891 597.892 892.94C733.246 892.54 832.594 806.927 914.074 690.376C995.553 573.825 1060.76 422.201 1125.57 298.183C1151.98 247.375 1182.38 197.767 1220.79 155.094C1243.72 129.624 1269.99 106.153 1300.27 90.151C1324.27 77.349 1350.67 70.6814 1377.48 73.0817C1472.69 81.3496 1474.43 181.765 1474.43 189.899" stroke="url(#paint4_linear_28_56)" stroke-width="1.33354" stroke-miterlimit="10"/>
<path d="M138.622 859.735C111.018 845.466 66.611 814.528 68.4779 705.978C69.278 657.037 81.0132 606.096 113.018 563.956C115.777 560.35 118.905 557.043 122.353 554.088C165.026 517.416 205.432 567.424 227.969 595.028C257.707 631.833 278.51 673.707 307.448 710.779C330.14 740.009 355.693 766.902 383.726 791.058C417.198 819.329 454.937 843.332 496.276 858.801C529.379 871.155 564.426 877.478 599.759 877.471C730.312 877.071 827.127 795.725 906.605 684.642C986.084 573.558 1050.63 428.336 1114.37 308.984C1140.24 260.177 1169.85 212.436 1206.92 171.363C1229.19 146.693 1254.53 124.023 1283.46 108.287C1306.4 95.7519 1331.74 89.0842 1357.34 90.6845C1448.82 96.6854 1451.62 189.633 1451.89 197.767" stroke="url(#paint5_linear_28_56)" stroke-width="1.33354" stroke-miterlimit="10"/>
<path d="M145.957 841.999C120.086 828.53 78.4797 799.192 83.1471 698.11C85.2808 652.503 97.6827 605.163 129.021 565.957C131.745 562.565 134.831 559.48 138.222 556.755C179.295 522.75 218.234 569.691 240.504 595.961C269.709 630.5 290.245 670.106 318.65 705.045C340.905 732.635 365.83 757.962 393.061 780.656C425.599 807.327 462.005 829.997 502.011 844.533C533.925 856.203 567.645 862.162 601.626 862.135C727.512 861.602 821.526 784.657 899.138 679.041C976.75 573.425 1040.76 434.737 1103.17 319.786C1128.64 273.112 1157.31 227.105 1193.05 187.499C1214.52 163.762 1238.92 141.892 1266.53 126.423C1288.66 114.155 1312.8 107.354 1337.34 108.421C1424.82 112.021 1428.69 198.168 1428.95 205.635" stroke="url(#paint6_linear_28_56)" stroke-width="1.33354" stroke-miterlimit="10"/>
<path d="M153.158 825.063C129.021 812.528 90.3482 783.723 97.816 690.242C101.15 648.103 114.219 604.229 145.157 567.957C147.79 564.858 150.74 562.042 153.958 559.556C193.697 528.218 231.17 571.958 252.906 596.762C281.577 629.166 302.114 666.505 329.851 699.31C351.702 725.27 375.995 749.072 402.396 770.388C433.867 795.325 469.206 816.662 507.612 830.264C538.395 841.188 570.829 846.737 603.493 846.666C724.711 846.133 815.925 773.588 891.804 673.44C967.682 573.291 1030.62 441.005 1092.1 330.588C1116.9 285.914 1144.91 241.774 1179.18 203.768C1199.98 180.832 1223.32 159.762 1249.72 144.693C1270.93 132.558 1294 125.623 1317.2 126.023C1400.95 127.357 1405.48 206.435 1405.88 213.503" stroke="url(#paint7_linear_28_56)" stroke-width="1.33354" stroke-miterlimit="10"/>
<path d="M161.159 806.66C138.622 795.058 102.35 768.387 112.485 682.374C117.019 643.568 130.754 603.296 161.159 569.957C163.794 567.108 166.697 564.518 169.827 562.223C207.966 533.552 243.972 574.358 265.441 597.562C293.446 627.966 313.849 662.905 341.053 693.576C362.451 717.859 386.068 740.092 411.597 759.986C442.268 783.456 476.274 803.326 513.346 815.995C542.938 826.24 574.045 831.424 605.36 831.33C721.911 830.664 810.458 762.387 884.336 667.705C958.214 573.024 1020.49 447.272 1080.9 341.523C1105.3 298.716 1132.37 256.576 1165.45 220.037C1185.31 197.901 1207.85 177.498 1232.92 162.829C1252.45 151.286 1274.53 144.736 1297.2 143.759C1376.94 140.292 1386.68 214.17 1386.95 221.104" stroke="url(#paint8_linear_28_56)" stroke-width="1.33354" stroke-miterlimit="10"/>
<path d="M168.627 789.724C147.823 779.056 114.218 752.918 127.154 674.506C133.021 639.168 147.29 602.362 177.161 572.091C179.791 569.447 182.647 567.038 185.696 564.89C222.235 538.886 256.773 576.625 277.976 598.495C305.314 626.633 325.584 659.304 352.254 687.842C373.147 710.544 396.142 731.217 420.932 749.585C450.669 771.588 483.474 789.991 518.946 801.726C547.454 811.224 577.312 816.042 607.36 815.995C719.11 815.195 804.857 751.318 876.868 662.105C948.879 572.891 1010.49 453.54 1069.7 352.324C1093.57 311.518 1119.84 271.245 1151.58 236.173C1170.78 214.97 1192.25 195.367 1216.12 180.965C1235.32 169.363 1256.26 162.295 1277.06 161.362C1353.07 157.895 1363.34 222.571 1364.28 229.239" stroke="url(#paint9_linear_28_56)" stroke-width="1.33354" stroke-miterlimit="10"/>
<path d="M176.495 770.921C157.559 761.053 126.22 737.583 141.823 666.639C148.891 634.634 163.826 601.429 193.297 574.091C195.77 571.67 198.497 569.524 201.432 567.69C236.504 544.22 269.576 578.892 290.512 599.295C317.316 625.432 337.319 655.57 363.457 682.108C383.975 703.133 406.334 722.279 430.267 739.316C458.938 759.586 490.676 776.655 524.681 787.457C551.988 796.285 580.529 800.696 609.227 800.526C716.31 799.726 799.256 740.25 869.534 656.504C939.811 572.758 1000.35 459.674 1058.5 363.126C1081.83 324.32 1107.44 285.914 1137.71 252.442C1156.24 232.039 1176.65 213.236 1199.32 199.101C1217.59 187.766 1237.32 180.565 1257.06 178.964C1329.2 173.23 1341.07 230.439 1342.14 237.907" stroke="url(#paint10_linear_28_56)" stroke-width="1.33354" stroke-miterlimit="10"/>
<path d="M183.696 754.252C166.36 745.317 138.089 722.247 156.492 658.771C164.76 630.233 180.495 600.495 209.3 576.092C211.8 573.957 214.476 572.039 217.301 570.357C250.773 549.554 282.378 581.159 303.047 600.095C329.185 624.099 349.188 651.97 374.658 676.374C394.685 695.748 416.371 713.329 439.468 728.915C467.339 747.584 497.744 763.32 530.282 773.188C556.456 781.258 583.704 785.305 611.094 785.19C713.376 784.257 793.922 729.182 862.066 650.77C930.21 572.358 990.219 465.941 1047.29 373.927C1070.23 337.122 1094.9 300.716 1123.84 268.711C1141.57 249.109 1161.04 230.972 1182.38 217.37C1199.85 206.169 1218.39 198.968 1236.92 196.701C1305.2 188.433 1319.34 240.574 1320.27 246.041" stroke="url(#paint11_linear_28_56)" stroke-width="1.33354" stroke-miterlimit="10"/>
<path d="M191.297 736.383C175.695 728.248 149.957 706.911 171.161 650.903C181.908 621.937 200.746 596.666 225.435 578.092C227.868 576.19 230.455 574.495 233.17 573.024C264.908 554.888 295.179 583.559 315.449 601.029C340.92 622.899 360.923 648.369 385.86 670.639C405.503 688.324 426.553 704.38 448.803 718.647C475.74 735.716 504.945 749.985 536.016 758.919C560.998 766.264 586.922 769.904 612.961 769.721C710.576 768.788 788.321 718.113 854.598 645.169C920.875 572.224 980.084 472.209 1036.23 384.729C1058.5 349.924 1082.37 315.385 1109.97 284.847C1127.04 266.178 1145.44 248.842 1165.58 235.506C1182.11 224.571 1199.58 217.237 1216.92 214.303C1281.33 203.635 1297.33 248.842 1298.27 254.043" stroke="url(#paint12_linear_28_56)" stroke-width="1.33354" stroke-miterlimit="10"/>
<path d="M198.498 718.78C184.763 711.579 161.826 691.576 185.829 643.035C198.409 617.463 217.611 595.728 241.438 580.092C243.845 578.489 246.338 577.02 248.906 575.692C279.177 560.222 307.981 585.826 327.984 601.829C352.788 621.699 372.658 644.769 396.928 664.905C416.163 680.935 436.629 695.427 458.138 708.245C484.142 723.714 512.146 736.516 541.617 744.651C565.491 751.304 590.179 754.581 614.961 754.385C707.776 753.319 782.854 707.045 847.263 639.568C911.673 572.091 969.949 478.477 1025.02 395.531C1046.76 362.726 1069.83 330.054 1096.23 301.116C1112.37 283.247 1129.84 266.711 1148.78 253.643C1164.25 242.974 1180.65 235.506 1196.78 232.039C1257.46 218.837 1272.66 258.043 1273.73 262.977" stroke="url(#paint13_linear_28_56)" stroke-width="1.33354" stroke-miterlimit="10"/>
<path d="M205.299 703.178C193.164 696.91 173.694 676.374 200.498 635.034C214.95 613.068 234.482 594.908 257.44 582.093C259.707 580.759 262.241 579.692 264.775 578.492C293.312 565.557 320.783 588.227 340.52 602.629C364.657 620.365 384.526 641.168 408.13 659.171C426.909 673.511 446.696 686.48 467.339 697.977C492.543 711.712 519.347 723.181 547.351 730.382C570.026 736.31 593.392 739.18 616.828 738.916C704.975 737.85 777.253 695.843 839.796 633.834C902.338 571.824 959.814 484.744 1013.82 406.466C1035.16 375.528 1057.43 344.723 1082.37 317.252C1097.83 300.316 1114.37 284.447 1131.97 271.779C1145.51 261.854 1160.67 254.363 1176.78 249.642C1233.59 234.04 1248.92 269.512 1249.86 272.445" stroke="url(#paint14_linear_28_56)" stroke-width="1.33354" stroke-miterlimit="10"/>
<path d="M212.634 687.575C202.365 682.108 185.429 665.439 215.167 631.567C228.236 616.764 246.505 596.761 273.576 584.093C275.877 582.988 278.237 582.008 280.644 581.159C307.448 570.891 333.585 590.494 353.055 603.562C376.525 619.165 396.262 637.568 419.332 653.437C437.634 666.128 456.794 677.535 476.674 687.575C500.811 699.71 526.415 709.845 552.952 716.113C574.478 721.285 596.558 723.793 618.695 723.581C702.175 722.381 771.652 684.775 832.328 628.233C893.004 571.691 949.679 490.879 1002.62 417.267C1023.42 388.33 1044.89 359.525 1068.5 333.521C1083.17 317.386 1098.77 302.317 1115.17 290.048C1127.68 280.301 1141.69 272.645 1156.64 267.378C1209.72 249.109 1223.99 279.246 1224.79 281.647" stroke="url(#paint15_linear_28_56)" stroke-width="1.33354" stroke-miterlimit="10"/>
<path d="M309.448 581.559C338.119 582.226 346.387 592.894 365.59 604.363C388.26 617.965 407.997 633.967 430.533 647.703C448.386 658.724 466.914 668.611 486.008 677.307C509.242 688.059 533.563 696.285 558.553 701.844C578.914 706.319 599.717 708.467 620.562 708.245C699.374 706.912 766.051 673.573 824.993 622.499C883.936 571.424 939.411 497.146 991.419 428.069C1011.69 401.132 1032.36 374.194 1054.63 349.791C1068.05 334.804 1082.63 320.892 1098.23 308.184C1109.95 298.781 1122.87 290.978 1136.64 284.981C1185.85 264.178 1204.38 287.114 1205.18 289.115" stroke="url(#paint16_linear_28_56)" stroke-width="1.33354" stroke-miterlimit="10"/>
<path d="M324.517 585.426C346.92 583.159 359.056 595.161 377.992 605.163C400.129 616.765 419.865 630.367 441.735 641.968C459.114 651.296 477.013 659.622 495.343 666.905C517.596 676.024 540.687 682.947 564.287 687.575C583.478 691.331 603.009 693.074 622.562 692.776C696.44 691.443 760.583 662.505 817.525 616.898C874.467 571.291 929.276 503.414 980.35 438.871C999.953 413.934 1019.82 388.863 1040.76 365.926C1053.44 351.853 1067.03 338.623 1081.43 326.32C1092.22 317.189 1103.98 309.274 1116.5 302.717C1161.98 279.247 1182.78 294.982 1183.58 297.649" stroke="url(#paint17_linear_28_56)" stroke-width="1.33354" stroke-miterlimit="10"/>
<path d="M335.452 588.093C357.856 586.226 371.858 597.561 390.527 606.096C411.864 615.698 431.6 626.766 452.937 636.234C469.739 643.702 486.942 650.636 504.545 656.637C525.843 663.938 547.695 669.513 569.888 673.306C587.909 676.309 606.162 677.693 624.429 677.44C693.64 675.973 754.983 651.303 810.058 611.297C865.133 571.291 919.141 509.548 969.149 449.672C988.218 426.735 1007.42 403.532 1027.02 382.195C1039.43 368.727 1051.96 355.791 1064.63 344.456C1074.56 335.534 1085.22 327.461 1096.5 320.319C1122.91 303.65 1136.51 301.916 1147.44 300.716C1152.78 300.05 1160.11 300.716 1163.31 305.25" stroke="url(#paint18_linear_28_56)" stroke-width="1.33354" stroke-miterlimit="10"/>
<path d="M349.188 591.294C369.857 590.36 384.526 600.095 403.062 606.896C423.732 614.497 443.335 623.165 464.138 630.5C480.407 636.367 497.077 641.702 513.879 646.236C534.145 651.904 554.773 656.181 575.622 659.037C592.407 661.379 609.353 662.36 626.296 661.971C690.839 660.504 749.248 640.101 802.723 605.563C856.198 571.024 908.873 515.816 957.947 460.474C976.616 439.537 994.886 418.334 1013.16 398.465C1024.76 385.796 1036.36 373.661 1047.83 362.726C1056.91 354.013 1066.43 345.778 1076.36 338.055C1076.36 338.055 1098.37 320.586 1117.3 315.385C1117.3 315.385 1129.17 311.918 1138.91 314.452" stroke="url(#paint19_linear_28_56)" stroke-width="1.33354" stroke-miterlimit="10"/>
<path d="M363.056 594.628C381.459 596.228 397.328 602.496 415.597 607.696C433.867 612.897 455.07 619.565 475.34 624.766C491.209 628.9 507.211 632.767 523.214 635.967C542.817 639.835 562.286 642.902 581.223 644.769C596.816 646.363 612.493 646.987 628.163 646.636C688.039 645.035 743.781 629.033 795.255 599.962C846.73 570.891 898.604 521.817 946.745 471.409C964.748 452.339 982.35 433.003 999.286 414.6C1010.22 402.865 1020.76 391.397 1031.02 380.862C1041.29 370.327 1048.49 363.126 1056.36 355.658C1089.7 323.92 1114.5 323.386 1114.9 323.52" stroke="url(#paint20_linear_28_56)" stroke-width="1.33354" stroke-miterlimit="10"/>
<path d="M223.568 557.955C223.568 557.955 479.607 635.701 630.03 631.167C685.239 629.566 738.18 617.831 787.788 594.361C920.074 531.551 1082.77 316.452 1083.7 315.519" stroke="url(#paint21_linear_28_56)" stroke-width="1.33354" stroke-miterlimit="10"/>
</g>
<defs>
<linearGradient id="paint0_linear_28_56" x1="448.709" y1="134.158" x2="1019.6" y2="705.058" gradientUnits="userSpaceOnUse">
<stop/>
<stop offset="1" stop-color="white"/>
</linearGradient>
<linearGradient id="paint1_linear_28_56" x1="455.11" y1="146.28" x2="1009.57" y2="700.737" gradientUnits="userSpaceOnUse">
<stop/>
<stop offset="1" stop-color="white"/>
</linearGradient>
<linearGradient id="paint2_linear_28_56" x1="461.938" y1="157.961" x2="999.673" y2="695.71" gradientUnits="userSpaceOnUse">
<stop/>
<stop offset="1" stop-color="white"/>
</linearGradient>
<linearGradient id="paint3_linear_28_56" x1="468.299" y1="170.083" x2="989.245" y2="691.042" gradientUnits="userSpaceOnUse">
<stop/>
<stop offset="1" stop-color="white"/>
</linearGradient>
<linearGradient id="paint4_linear_28_56" x1="474.447" y1="182.378" x2="978.55" y2="686.482" gradientUnits="userSpaceOnUse">
<stop/>
<stop offset="1" stop-color="white"/>
</linearGradient>
<linearGradient id="paint5_linear_28_56" x1="480.941" y1="194.314" x2="968.481" y2="681.854" gradientUnits="userSpaceOnUse">
<stop/>
<stop offset="1" stop-color="white"/>
</linearGradient>
<linearGradient id="paint6_linear_28_56" x1="487.382" y1="206.249" x2="958.147" y2="677" gradientUnits="userSpaceOnUse">
<stop/>
<stop offset="1" stop-color="white"/>
</linearGradient>
<linearGradient id="paint7_linear_28_56" x1="493.663" y1="218.277" x2="947.732" y2="672.346" gradientUnits="userSpaceOnUse">
<stop/>
<stop offset="1" stop-color="white"/>
</linearGradient>
<linearGradient id="paint8_linear_28_56" x1="500.957" y1="229.212" x2="940.197" y2="668.439" gradientUnits="userSpaceOnUse">
<stop/>
<stop offset="1" stop-color="white"/>
</linearGradient>
<linearGradient id="paint9_linear_28_56" x1="507.065" y1="241.241" x2="929.916" y2="664.092" gradientUnits="userSpaceOnUse">
<stop/>
<stop offset="1" stop-color="white"/>
</linearGradient>
<linearGradient id="paint10_linear_28_56" x1="513.959" y1="252.256" x2="921.168" y2="659.464" gradientUnits="userSpaceOnUse">
<stop/>
<stop offset="1" stop-color="white"/>
</linearGradient>
<linearGradient id="paint11_linear_28_56" x1="519.987" y1="263.617" x2="911.58" y2="655.21" gradientUnits="userSpaceOnUse">
<stop/>
<stop offset="1" stop-color="white"/>
</linearGradient>
<linearGradient id="paint12_linear_28_56" x1="526.241" y1="274.032" x2="902.499" y2="650.289" gradientUnits="userSpaceOnUse">
<stop/>
<stop offset="1" stop-color="white"/>
</linearGradient>
<linearGradient id="paint13_linear_28_56" x1="531.455" y1="284.394" x2="892.15" y2="645.089" gradientUnits="userSpaceOnUse">
<stop/>
<stop offset="1" stop-color="white"/>
</linearGradient>
<linearGradient id="paint14_linear_28_56" x1="535.229" y1="294.595" x2="881.682" y2="641.061" gradientUnits="userSpaceOnUse">
<stop/>
<stop offset="1" stop-color="white"/>
</linearGradient>
<linearGradient id="paint15_linear_28_56" x1="539.563" y1="305.104" x2="870.72" y2="636.247" gradientUnits="userSpaceOnUse">
<stop/>
<stop offset="1" stop-color="white"/>
</linearGradient>
<linearGradient id="paint16_linear_28_56" x1="606.4" y1="283.981" x2="908.539" y2="586.12" gradientUnits="userSpaceOnUse">
<stop/>
<stop offset="1" stop-color="white"/>
</linearGradient>
<linearGradient id="paint17_linear_28_56" x1="611.041" y1="298.236" x2="897.258" y2="584.453" gradientUnits="userSpaceOnUse">
<stop/>
<stop offset="1" stop-color="white"/>
</linearGradient>
<linearGradient id="paint18_linear_28_56" x1="612.868" y1="309.904" x2="885.803" y2="582.839" gradientUnits="userSpaceOnUse">
<stop/>
<stop offset="1" stop-color="white"/>
</linearGradient>
<linearGradient id="paint19_linear_28_56" x1="615.548" y1="324.267" x2="872.507" y2="581.226" gradientUnits="userSpaceOnUse">
<stop/>
<stop offset="1" stop-color="white"/>
</linearGradient>
<linearGradient id="paint20_linear_28_56" x1="618.495" y1="338.495" x2="859.398" y2="579.399" gradientUnits="userSpaceOnUse">
<stop/>
<stop offset="1" stop-color="white"/>
</linearGradient>
<linearGradient id="paint21_linear_28_56" x1="498.757" y1="282.233" x2="817.846" y2="601.322" gradientUnits="userSpaceOnUse">
<stop/>
<stop offset="1" stop-color="white"/>
</linearGradient>
<clipPath id="clip0_28_56">
<rect width="1573.04" height="955.087" fill="white" transform="translate(-7)"/>
</clipPath>
</defs>
</svg>
