<svg width="770" height="199" viewBox="0 0 770 199" fill="none" xmlns="http://www.w3.org/2000/svg">
<path d="M46.8496 0.626953H63.4736V79.969H52.8947V10.4502L16.624 79.969H0V0.626953H10.5789V69.3901L46.8496 0.626953Z" fill="white"/>
<path d="M154.906 0.626953H216.869V10.4502H191.177V79.969H180.598V10.4502H154.906V0.626953Z" fill="white"/>
<path d="M227.448 37.6532V0.626953H277.321V10.4502H238.027V30.8525C233.893 31.9948 230.204 34.3665 227.448 37.6532ZM238.027 50.4991V69.3901H277.321V79.969H227.448V52.0104C227.231 49.3764 227.591 46.7267 228.505 44.2467C229.419 41.7667 230.863 39.5164 232.738 37.6532C237.07 34.381 242.433 32.7722 247.851 33.1194H275.054V42.9427H247.095C244.072 42.9427 241.05 43.6984 240.294 45.2096C239.507 45.8334 238.887 46.6438 238.491 47.5673C238.095 48.4909 237.936 49.4985 238.027 50.4991Z" fill="white"/>
<path d="M352.126 79.969H341.547V10.4502H302.254V0.626953H352.126V79.969Z" fill="white"/>
<path d="M508.543 0.626953H558.415V10.4502H519.122V79.969H508.543V0.626953Z" fill="white"/>
<path d="M480.588 0.626953H497.212V79.969H486.633V10.4502L449.607 79.969H433.738V0.626953H444.317V69.3901L480.588 0.626953Z" fill="white"/>
<path d="M568.995 37.6532V0.626953H618.867V10.4502H579.574V30.8525C575.44 31.9948 571.751 34.3665 568.995 37.6532ZM579.574 50.4991V69.3901H618.867V79.969H568.995V52.0104C568.777 49.3764 569.138 46.7267 570.052 44.2467C570.965 41.7667 572.41 39.5164 574.285 37.6532C578.674 34.4947 583.995 32.8984 589.398 33.1194H617.356V42.9427H588.642C587.414 42.8385 586.177 42.9858 585.008 43.3756C583.839 43.7654 582.761 44.3894 581.841 45.2096C581.053 45.8334 580.434 46.6438 580.038 47.5673C579.642 48.4909 579.483 49.4985 579.574 50.4991Z" fill="white"/>
<path d="M686.12 79.969V44.454H653.628C651.025 44.3589 648.437 44.8766 646.071 45.9653C645.013 47.7995 644.489 49.8937 644.56 52.0104V79.969H633.981V52.766C633.71 50.241 634.049 47.6879 634.97 45.3211C635.89 42.9543 637.365 40.843 639.271 39.1645C643.535 35.7612 648.95 34.1368 654.383 34.6307H686.12V0.626953H696.699V79.969H686.12ZM644.56 0.626953V32.3638C642.396 32.6203 640.319 33.3659 638.486 34.5442C636.654 35.7225 635.113 37.3025 633.981 39.1645V0.626953H644.56Z" fill="white"/>
<path d="M707.277 0.626953H769.24V10.4502H743.548V79.969H732.969V10.4502H707.277V0.626953Z" fill="white"/>
<path d="M133.749 79.2133V44.454H101.257C97.4786 44.454 95.2116 44.454 93.7004 45.9653C92.1891 47.4765 92.1891 48.9878 92.1891 52.0104V79.2133H81.6102V52.766C81.3391 50.2411 81.6781 47.6879 82.5985 45.3211C83.5189 42.9543 84.9939 40.843 86.8996 39.1645C91.1642 35.7612 96.5787 34.1368 102.012 34.6307H133.749V0.626953H143.572V79.2133H133.749Z" fill="white"/>
<path d="M92.1883 0.626953V32.3638C90.0245 32.6203 87.9475 33.3659 86.1146 34.5442C84.2817 35.7225 82.741 37.3025 81.6094 39.1645V0.626953H92.1883Z" fill="white"/>
<path d="M309.057 62.5898C309.334 65.0037 308.994 67.4484 308.069 69.6951C307.144 71.9418 305.664 73.917 303.767 75.4357C299.735 78.7221 294.599 80.3439 289.41 79.9696V69.3906C290.921 69.3906 294.7 70.1462 296.211 68.6349C297.722 67.1237 298.478 63.3455 298.478 62.5898H309.057Z" fill="white"/>
<path d="M309.056 62.5893L298.477 64.8562V0.626953H309.056V62.5893Z" fill="white"/>
<path d="M423.915 79.969H413.336V10.4502H374.043V0.626953H423.915V79.969Z" fill="white"/>
<path d="M380.842 62.5898C381.119 65.0037 380.779 67.4484 379.854 69.6951C378.929 71.9418 377.449 73.917 375.552 75.4357C371.52 78.7221 366.384 80.3439 361.195 79.9696V69.3906C363.735 69.8612 366.356 69.5991 368.752 68.6349C370.041 66.8626 370.825 64.7731 371.019 62.5898H380.842Z" fill="white"/>
<path d="M380.843 62.5893L371.02 64.8562V0.626953H380.843V62.5893Z" fill="white"/>
<path d="M54.5043 188.876V198.7H37.1246C24.2787 198.7 14.4555 195.677 9.166 188.876C2.61045 180.509 -0.619254 170.012 0.0983031 159.406C-0.619254 148.801 2.61045 138.304 9.166 129.937C14.4555 123.136 24.2787 120.113 37.1246 120.113H53.7486V129.937H38.6358C34.8269 129.467 30.9616 129.832 27.308 131.007C23.6543 132.181 20.3001 134.137 17.478 136.737C12.6414 143.244 10.4784 151.355 11.4329 159.406C10.4784 167.458 12.6414 175.569 17.478 182.076C20.3001 184.676 23.6543 186.632 27.308 187.806C30.9616 188.981 34.8269 189.346 38.6358 188.876H54.5043Z" fill="white"/>
<path d="M61.3047 120.113H123.267V129.937H97.5754V198.7H86.9964V129.937H61.3047V120.113Z" fill="white"/>
<path d="M133.846 120.113H161.049C179.184 120.113 188.252 129.181 188.252 147.316C188.521 150.998 188.059 154.696 186.892 158.197C185.724 161.699 183.875 164.935 181.451 167.718C174.331 172.604 165.906 175.237 157.271 175.275L148.203 176.786C146.692 177.542 145.18 178.297 145.18 179.053C145.18 179.809 144.425 181.32 144.425 183.587V198.7H133.846V181.32C133.666 179.208 133.982 177.083 134.77 175.115C135.557 173.148 136.793 171.391 138.38 169.985C142.677 167.224 147.633 165.659 152.737 165.452C159.672 165.735 166.528 163.889 172.383 160.162C176.162 157.895 177.673 154.117 177.673 147.316C178.066 144.945 177.887 142.515 177.153 140.227C176.418 137.939 175.149 135.859 173.45 134.16C171.75 132.461 169.67 131.191 167.382 130.456C165.094 129.722 162.664 129.544 160.293 129.937H144.425V163.185C140.2 164.117 136.448 166.529 133.846 169.985V120.113Z" fill="white"/>
<path d="M199.589 159.406C199.589 132.203 211.679 119.357 236.615 119.357C236.906 122.312 236.099 125.271 234.348 127.669L231.326 129.936H225.28C221.676 131.301 218.532 133.659 216.213 136.737C214.093 139.694 212.554 143.028 211.679 146.56C210.996 150.297 210.743 154.1 210.923 157.895C209.969 165.946 212.132 174.057 216.968 180.564C219.388 183.318 222.44 185.444 225.862 186.76C229.283 188.077 232.973 188.543 236.615 188.12C240.252 188.481 243.923 187.985 247.335 186.673C250.746 185.361 253.803 183.269 256.262 180.564C260.786 173.91 262.918 165.918 262.307 157.895C262.805 150.119 260.676 142.402 256.262 135.981C253.842 133.227 250.79 131.1 247.369 129.784C243.947 128.468 240.257 128.002 236.615 128.425C237.962 127.032 238.996 125.368 239.647 123.543C240.299 121.719 240.553 119.776 240.393 117.846C262.307 119.357 272.886 132.958 272.886 157.895C273.449 168.715 270.245 179.397 263.818 188.12C260.322 191.75 256.078 194.576 251.381 196.403C246.683 198.23 241.645 199.013 236.615 198.699C231.466 199.074 226.297 198.321 221.468 196.494C216.64 194.667 212.268 191.81 208.656 188.12C202.556 179.807 199.369 169.714 199.589 159.406Z" fill="white"/>
<path d="M335.603 120.113H352.227V198.7H341.649V129.937L304.622 198.7H288.754V120.113H298.577V188.876H299.333L335.603 120.113Z" fill="white"/>
<path d="M323.513 115.578H305.377V104.999H333.336C333.343 107.679 332.332 110.261 330.509 112.225C328.686 114.188 326.185 115.387 323.513 115.578Z" fill="white"/>
</svg>
