<svg width="17" height="17" viewBox="0 0 17 17" fill="none" xmlns="http://www.w3.org/2000/svg">
<path d="M14.58 5.58848H11.2334V2.20294" stroke="white" stroke-width="0.668331" stroke-miterlimit="10"/>
<path d="M11.2334 5.58848L15.2236 1.55188" stroke="white" stroke-width="0.668331" stroke-miterlimit="10"/>
<path d="M9.75271 13.9221L11.8765 11.7085C12.0596 11.5457 12.2888 11.4455 12.5315 11.4221C12.7741 11.3987 13.0179 11.4534 13.228 11.5783L15.9311 13.3362C16.0827 13.4501 16.209 13.5949 16.3019 13.7612C16.3948 13.9276 16.4521 14.1118 16.4703 14.302C16.4885 14.4921 16.4671 14.684 16.4075 14.8653C16.3479 15.0466 16.2514 15.2132 16.1242 15.3544L15.0301 16.4613H14.7083C11.5351 15.3881 8.64832 13.591 6.27131 11.2089C3.8943 8.82687 2.09071 5.92365 1 2.72379V2.46337L2.09409 1.35655C2.23369 1.22788 2.39841 1.13025 2.5776 1.06993C2.7568 1.00961 2.9465 0.987955 3.13448 1.00636C3.32246 1.02476 3.50454 1.08281 3.66898 1.17677C3.83342 1.27073 3.97657 1.39851 4.08919 1.55187L5.82686 4.28634C5.94502 4.48904 5.99625 4.72457 5.97311 4.95872C5.94996 5.19287 5.85365 5.41346 5.69815 5.58847L3.50997 7.8021" stroke="white" stroke-width="0.668331" stroke-miterlimit="10"/>
</svg>
