<svg width="229" height="58" viewBox="0 0 229 58" fill="none" xmlns="http://www.w3.org/2000/svg">
<path fill-rule="evenodd" clip-rule="evenodd" d="M90.6163 33.3075H95.9977C96.7908 33.2507 97.5328 32.895 98.0738 32.3124C98.6149 31.7297 98.9146 30.9634 98.9126 30.1683H90.6163V33.3075ZM70.2117 34.4286C62.8122 34.4286 59.2247 38.2404 59.2247 46.3125C59.1595 49.3714 60.1053 52.3664 61.9154 54.8331C62.9869 55.9279 64.2843 56.7759 65.7171 57.318C67.15 57.8602 68.6838 58.0834 70.2117 57.9722C71.7043 58.0655 73.1994 57.833 74.5932 57.291C75.987 56.7489 77.2463 55.9102 78.2838 54.8331C80.1909 52.2445 81.1417 49.0749 80.9745 45.8641C80.9745 38.4646 77.8353 34.4286 71.3328 33.9801C71.3803 34.5531 71.3048 35.1295 71.1115 35.6709C70.9181 36.2122 70.6113 36.7061 70.2117 37.1193C71.2923 36.9938 72.3873 37.1322 73.4026 37.5227C74.418 37.9133 75.3235 38.5442 76.0415 39.3615C77.3514 41.2667 77.9831 43.5568 77.8354 45.8641C78.0167 48.2448 77.3842 50.6165 76.0415 52.5908C75.3121 53.3935 74.405 54.0143 73.3927 54.4037C72.3804 54.793 71.291 54.9401 70.2117 54.8331C69.1311 54.9586 68.0361 54.8202 67.0207 54.4296C66.0054 54.0391 65.0998 53.4081 64.3818 52.5908C62.9467 50.66 62.3048 48.2531 62.588 45.8641C62.5344 44.7381 62.6097 43.6096 62.8123 42.5007C63.072 41.4526 63.5285 40.4634 64.1576 39.5858C64.8459 38.6725 65.7788 37.9728 66.8483 37.5677H68.6421L69.539 36.8951C70.0585 36.1834 70.2979 35.3055 70.2117 34.4286ZM16.1734 57.9722V55.0573H11.4646C10.3344 55.1966 9.18741 55.0882 8.10325 54.7397C7.01909 54.3912 6.02376 53.811 5.18635 53.0393C3.75116 51.1084 3.10932 48.7016 3.39255 46.3125C3.10932 43.9234 3.75116 41.5166 5.18635 39.5858C6.02376 38.814 7.01909 38.2338 8.10325 37.8853C9.18741 37.5368 10.3344 37.4284 11.4646 37.5677H15.9491V34.6528H11.0162C7.20437 34.6528 4.28946 35.5497 2.71988 37.5677C0.774614 40.0507 -0.183755 43.1654 0.02917 46.3125C-0.183755 49.4596 0.774614 52.5742 2.71988 55.0573C4.28946 57.0753 7.20437 57.9722 11.0162 57.9722H16.1734ZM36.5781 34.6528H18.1916V37.5677H25.8153V57.9722H28.9544V37.5677H36.5781V34.6528ZM39.7168 34.6528H47.7889C53.1703 34.6528 55.861 37.3435 55.861 42.7249C55.9409 43.8173 55.8037 44.9147 55.4574 45.9537C55.111 46.9928 54.5623 47.953 53.843 48.779C51.7301 50.2288 49.2302 51.01 46.6678 51.0212L43.9771 51.4697C43.5286 51.6939 43.0802 51.9181 43.0802 52.1424C43.0802 52.2244 43.0501 52.3365 43.012 52.4787C42.9461 52.7249 42.8559 53.0612 42.8559 53.4877V57.9722H39.7168V52.815C39.6635 52.1883 39.7573 51.5579 39.9909 50.9739C40.2245 50.39 40.5913 49.8687 41.0621 49.4516C42.3373 48.6322 43.808 48.1678 45.3224 48.1063C47.3804 48.1904 49.4147 47.6427 51.1523 46.5367C52.2734 45.864 52.7219 44.7429 52.7219 42.7249C52.8384 42.0214 52.7855 41.3003 52.5676 40.6213C52.3496 39.9423 51.9729 39.3251 51.4687 38.8209C50.9644 38.3167 50.3473 37.9399 49.6683 37.722C48.9893 37.5041 48.2682 37.4512 47.5647 37.5677H42.8559V47.4336C41.6023 47.7103 40.489 48.4261 39.7168 49.4516V34.6528ZM99.5853 34.6528H104.518V57.9722H101.379V37.5677L90.3921 57.9722H85.6834V34.6528H88.5983V55.0573H88.8225L99.5853 34.6528Z" fill="white"/>
<path fill-rule="evenodd" clip-rule="evenodd" d="M19.3144 0H14.3814L3.61864 20.4045V0H0.479492V23.5436H5.41244L16.1752 2.91492V23.5436H19.3144V0ZM64.8321 0H46.4457V2.91492H54.0693V23.5436H57.2085V2.91492H64.8321V0ZM67.9713 10.987V0H82.7701V2.91492H71.1105V8.969C69.8837 9.30795 68.7889 10.0117 67.9713 10.987ZM71.1105 14.7989V20.4045H82.7701V23.5436H67.9713V15.2473C67.9067 14.4657 68.0137 13.6794 68.2848 12.9435C68.5559 12.2076 68.9846 11.5399 69.5409 10.987C70.8264 10.016 72.4177 9.53866 74.0254 9.64168H82.0975V12.5566H73.8011C72.9042 12.5566 72.0073 12.7808 71.7831 13.2293C71.5494 13.4144 71.3655 13.6548 71.248 13.9289C71.1306 14.2029 71.0833 14.5019 71.1105 14.7989ZM101.829 23.5436H104.968V0H92.1877H90.1695H89.0485V18.3865H89.0483C89.0483 18.6107 88.824 19.7318 88.3756 20.1803C88.0237 20.5322 87.2575 20.4699 86.7272 20.4267C86.5818 20.4149 86.4541 20.4045 86.3576 20.4045V23.5437C87.8972 23.6547 89.4212 23.1735 90.6178 22.1983C91.1806 21.7476 91.6199 21.1615 91.8944 20.4949C92.1689 19.8282 92.2697 19.1027 92.1874 18.3865L92.1877 18.3865V2.91492H101.829V23.5436ZM151.383 0H166.182V2.91492H154.522V23.5436H151.383V0ZM148.019 0H143.087L132.324 20.4045V0H129.185V23.5436H133.893L144.88 2.91492V23.5436H148.019V0ZM169.321 10.987V0H184.12V2.91492H172.46V8.969C171.233 9.30795 170.139 10.0117 169.321 10.987ZM172.46 14.7989V20.4045H184.12V23.5436H169.321V15.2473C169.256 14.4657 169.363 13.6794 169.634 12.9435C169.906 12.2076 170.334 11.5399 170.891 10.987C172.193 10.0498 173.772 9.57609 175.375 9.64168H183.671V12.5566H175.151C174.786 12.5257 174.419 12.5694 174.073 12.6851C173.726 12.8007 173.406 12.9859 173.133 13.2293C172.899 13.4144 172.715 13.6548 172.598 13.9289C172.48 14.2029 172.433 14.5019 172.46 14.7989ZM204.076 13.0051V23.5436H207.215V0H204.076V10.0901H194.658C193.046 9.94358 191.439 10.4256 190.174 11.4355C189.608 11.9335 189.171 12.5601 188.897 13.2624C188.624 13.9647 188.524 14.7223 188.604 15.4715V23.5436H191.743V15.2473C191.722 14.6192 191.878 13.9978 192.192 13.4535C192.894 13.1305 193.662 12.9768 194.434 13.0051H204.076ZM191.743 9.41745V0H188.604V11.4355C188.94 10.883 189.397 10.4141 189.941 10.0645C190.485 9.71482 191.101 9.49356 191.743 9.41745ZM210.354 0H228.741V2.91492H221.117V23.5436H217.978V2.91492H210.354V0ZM40.1673 13.0051V23.3194H43.0822V0H40.1673V10.0901H30.7498C29.1374 9.94358 27.5308 10.4256 26.2653 11.4355C25.6998 11.9335 25.2621 12.5601 24.989 13.2624C24.7159 13.9647 24.6153 14.7223 24.6957 15.4715V23.3194H27.8349V15.2473C27.8349 14.3504 27.8349 13.902 28.2833 13.4535C28.7318 13.0051 29.4045 13.0051 30.5256 13.0051H40.1673ZM27.8352 0V9.41746C27.1931 9.49356 26.5768 9.71482 26.0329 10.0645C25.489 10.4141 25.0318 10.883 24.696 11.4355V0H27.8352ZM123.131 23.5436H126.27V0H113.489H111.471H110.574V18.3865H110.574C110.516 19.0343 110.284 19.6544 109.901 20.1803C109.19 20.4664 108.413 20.5442 107.659 20.4045V23.5437C109.199 23.6547 110.723 23.1735 111.919 22.1983C112.482 21.7476 112.921 21.1615 113.196 20.4949C113.47 19.8282 113.571 19.1027 113.489 18.3865L113.489 18.3865V2.91492H123.131V23.5436Z" fill="white"/>
</svg>
