<svg width="1170" height="299" viewBox="0 0 1170 299" fill="none" xmlns="http://www.w3.org/2000/svg">
<g filter="url(#filter0_b_168_254)">
<mask id="path-1-inside-1_168_254" fill="white">
<path fill-rule="evenodd" clip-rule="evenodd" d="M463.5 172.367H491.025C495.082 172.077 498.877 170.258 501.645 167.277C504.412 164.297 505.946 160.378 505.935 156.311H463.5V172.367ZM359.131 178.102C321.284 178.102 302.933 197.599 302.933 238.888C302.6 254.534 307.437 269.853 316.696 282.47C322.177 288.07 328.813 292.407 336.142 295.181C343.471 297.954 351.316 299.095 359.131 298.527C366.766 299.004 374.413 297.815 381.543 295.042C388.672 292.27 395.113 287.98 400.42 282.47C410.175 269.23 415.038 253.017 414.183 236.594C414.183 198.746 398.126 178.102 364.866 175.808C365.109 178.738 364.723 181.687 363.734 184.456C362.745 187.225 361.176 189.751 359.131 191.864C364.659 191.222 370.259 191.93 375.453 193.928C380.647 195.926 385.278 199.153 388.951 203.334C395.651 213.079 398.882 224.792 398.126 236.594C399.054 248.771 395.819 260.902 388.951 271.001C385.22 275.107 380.58 278.282 375.402 280.274C370.224 282.265 364.652 283.017 359.131 282.47C353.604 283.112 348.003 282.404 342.81 280.406C337.616 278.409 332.984 275.181 329.312 271.001C321.971 261.125 318.688 248.814 320.137 236.594C319.862 230.834 320.247 225.062 321.284 219.39C322.612 214.029 324.947 208.969 328.165 204.48C331.686 199.809 336.457 196.23 341.928 194.158H351.103L355.691 190.718C358.348 187.077 359.573 182.587 359.131 178.102ZM82.7265 298.527V283.617H58.6414C52.8602 284.329 46.9934 283.775 41.4479 281.993C35.9025 280.21 30.8114 277.242 26.5281 273.295C19.1871 263.419 15.9041 251.108 17.3528 238.888C15.9041 226.668 19.1871 214.356 26.5281 204.48C30.8114 200.533 35.9025 197.565 41.4479 195.782C46.9934 194 52.8602 193.446 58.6414 194.158H81.5795V179.248H56.3476C36.8502 179.248 21.9405 183.836 13.9121 194.158C3.96213 206.859 -0.939901 222.79 0.149204 238.888C-0.939901 254.985 3.96213 270.916 13.9121 283.617C21.9405 293.939 36.8502 298.527 56.3476 298.527H82.7265ZM187.096 179.248H93.0494V194.158H132.044V298.527H148.101V194.158H187.096V179.248ZM203.151 179.248H244.44C271.966 179.248 285.729 193.011 285.729 220.537C286.137 226.124 285.436 231.738 283.664 237.052C281.892 242.367 279.086 247.279 275.406 251.504C264.599 258.919 251.812 262.915 238.705 262.973L224.942 265.266C222.649 266.413 220.355 267.56 220.355 268.707C220.355 269.127 220.201 269.7 220.006 270.427C219.669 271.687 219.208 273.407 219.208 275.589V298.527H203.151V272.148C202.879 268.942 203.359 265.718 204.553 262.731C205.748 259.744 207.625 257.077 210.033 254.944C216.555 250.753 224.077 248.378 231.824 248.063C242.35 248.493 252.756 245.691 261.643 240.034C267.378 236.594 269.672 230.859 269.672 220.537C270.268 216.939 269.997 213.25 268.883 209.777C267.768 206.304 265.841 203.147 263.262 200.568C260.683 197.989 257.526 196.062 254.053 194.947C250.58 193.833 246.891 193.562 243.293 194.158H219.208V244.622C212.796 246.037 207.101 249.698 203.151 254.944V179.248ZM509.376 179.248H534.608V298.527H518.551V194.158L462.353 298.527H438.268V179.248H453.177V283.617H454.324L509.376 179.248Z"/>
</mask>
<path fill-rule="evenodd" clip-rule="evenodd" d="M463.5 172.367H491.025C495.082 172.077 498.877 170.258 501.645 167.277C504.412 164.297 505.946 160.378 505.935 156.311H463.5V172.367ZM359.131 178.102C321.284 178.102 302.933 197.599 302.933 238.888C302.6 254.534 307.437 269.853 316.696 282.47C322.177 288.07 328.813 292.407 336.142 295.181C343.471 297.954 351.316 299.095 359.131 298.527C366.766 299.004 374.413 297.815 381.543 295.042C388.672 292.27 395.113 287.98 400.42 282.47C410.175 269.23 415.038 253.017 414.183 236.594C414.183 198.746 398.126 178.102 364.866 175.808C365.109 178.738 364.723 181.687 363.734 184.456C362.745 187.225 361.176 189.751 359.131 191.864C364.659 191.222 370.259 191.93 375.453 193.928C380.647 195.926 385.278 199.153 388.951 203.334C395.651 213.079 398.882 224.792 398.126 236.594C399.054 248.771 395.819 260.902 388.951 271.001C385.22 275.107 380.58 278.282 375.402 280.274C370.224 282.265 364.652 283.017 359.131 282.47C353.604 283.112 348.003 282.404 342.81 280.406C337.616 278.409 332.984 275.181 329.312 271.001C321.971 261.125 318.688 248.814 320.137 236.594C319.862 230.834 320.247 225.062 321.284 219.39C322.612 214.029 324.947 208.969 328.165 204.48C331.686 199.809 336.457 196.23 341.928 194.158H351.103L355.691 190.718C358.348 187.077 359.573 182.587 359.131 178.102ZM82.7265 298.527V283.617H58.6414C52.8602 284.329 46.9934 283.775 41.4479 281.993C35.9025 280.21 30.8114 277.242 26.5281 273.295C19.1871 263.419 15.9041 251.108 17.3528 238.888C15.9041 226.668 19.1871 214.356 26.5281 204.48C30.8114 200.533 35.9025 197.565 41.4479 195.782C46.9934 194 52.8602 193.446 58.6414 194.158H81.5795V179.248H56.3476C36.8502 179.248 21.9405 183.836 13.9121 194.158C3.96213 206.859 -0.939901 222.79 0.149204 238.888C-0.939901 254.985 3.96213 270.916 13.9121 283.617C21.9405 293.939 36.8502 298.527 56.3476 298.527H82.7265ZM187.096 179.248H93.0494V194.158H132.044V298.527H148.101V194.158H187.096V179.248ZM203.151 179.248H244.44C271.966 179.248 285.729 193.011 285.729 220.537C286.137 226.124 285.436 231.738 283.664 237.052C281.892 242.367 279.086 247.279 275.406 251.504C264.599 258.919 251.812 262.915 238.705 262.973L224.942 265.266C222.649 266.413 220.355 267.56 220.355 268.707C220.355 269.127 220.201 269.7 220.006 270.427C219.669 271.687 219.208 273.407 219.208 275.589V298.527H203.151V272.148C202.879 268.942 203.359 265.718 204.553 262.731C205.748 259.744 207.625 257.077 210.033 254.944C216.555 250.753 224.077 248.378 231.824 248.063C242.35 248.493 252.756 245.691 261.643 240.034C267.378 236.594 269.672 230.859 269.672 220.537C270.268 216.939 269.997 213.25 268.883 209.777C267.768 206.304 265.841 203.147 263.262 200.568C260.683 197.989 257.526 196.062 254.053 194.947C250.58 193.833 246.891 193.562 243.293 194.158H219.208V244.622C212.796 246.037 207.101 249.698 203.151 254.944V179.248ZM509.376 179.248H534.608V298.527H518.551V194.158L462.353 298.527H438.268V179.248H453.177V283.617H454.324L509.376 179.248Z" fill="white" fill-opacity="0.5"/>
<path d="M491.025 172.367V172.867H491.043L491.061 172.866L491.025 172.367ZM463.5 172.367H463V172.867H463.5V172.367ZM501.645 167.277L502.011 167.618L502.011 167.618L501.645 167.277ZM505.935 156.311L506.435 156.309L506.434 155.811H505.935V156.311ZM463.5 156.311V155.811H463V156.311H463.5ZM302.933 238.888L303.433 238.898V238.888H302.933ZM359.131 178.102L359.629 178.053L359.585 177.602H359.131V178.102ZM316.696 282.47L316.293 282.766L316.314 282.794L316.339 282.82L316.696 282.47ZM336.142 295.181L335.965 295.648L335.965 295.648L336.142 295.181ZM359.131 298.527L359.163 298.028L359.129 298.026L359.095 298.028L359.131 298.527ZM381.543 295.042L381.724 295.508L381.724 295.508L381.543 295.042ZM400.42 282.47L400.78 282.817L400.803 282.793L400.823 282.767L400.42 282.47ZM414.183 236.594H413.683V236.607L413.684 236.62L414.183 236.594ZM364.866 175.808L364.9 175.309L364.32 175.269L364.368 175.849L364.866 175.808ZM363.734 184.456L363.263 184.288L363.263 184.288L363.734 184.456ZM359.131 191.864L358.772 191.517L357.799 192.523L359.189 192.361L359.131 191.864ZM375.453 193.928L375.274 194.395L375.274 194.395L375.453 193.928ZM388.951 203.334L389.363 203.05L389.346 203.026L389.327 203.004L388.951 203.334ZM398.126 236.594L397.627 236.562L397.625 236.597L397.628 236.632L398.126 236.594ZM388.951 271.001L389.321 271.337L389.345 271.311L389.364 271.282L388.951 271.001ZM375.402 280.274L375.223 279.807L375.223 279.807L375.402 280.274ZM359.131 282.47L359.181 281.972L359.127 281.967L359.074 281.973L359.131 282.47ZM342.81 280.406L342.989 279.94L342.989 279.94L342.81 280.406ZM329.312 271.001L328.911 271.299L328.923 271.316L328.936 271.331L329.312 271.001ZM320.137 236.594L320.633 236.653L320.638 236.611L320.636 236.57L320.137 236.594ZM321.284 219.39L320.798 219.27L320.795 219.285L320.792 219.3L321.284 219.39ZM328.165 204.48L327.766 204.179L327.759 204.189L328.165 204.48ZM341.928 194.158V193.658H341.836L341.751 193.691L341.928 194.158ZM351.103 194.158V194.658H351.27L351.403 194.558L351.103 194.158ZM355.691 190.718L355.991 191.118L356.051 191.073L356.095 191.012L355.691 190.718ZM82.7265 283.617H83.2265V283.117H82.7265V283.617ZM82.7265 298.527V299.027H83.2265V298.527H82.7265ZM58.6414 283.617V283.117H58.6107L58.5802 283.121L58.6414 283.617ZM41.4479 281.993L41.6009 281.517L41.6009 281.517L41.4479 281.993ZM26.5281 273.295L26.1268 273.593L26.1548 273.631L26.1892 273.662L26.5281 273.295ZM17.3528 238.888L17.8493 238.946L17.8563 238.888L17.8493 238.829L17.3528 238.888ZM26.5281 204.48L26.1892 204.113L26.1548 204.144L26.1268 204.182L26.5281 204.48ZM41.4479 195.782L41.6009 196.258L41.6009 196.258L41.4479 195.782ZM58.6414 194.158L58.5802 194.654L58.6107 194.658H58.6414V194.158ZM81.5795 194.158V194.658H82.0795V194.158H81.5795ZM81.5795 179.248H82.0795V178.748H81.5795V179.248ZM13.9121 194.158L14.3057 194.467L14.3068 194.465L13.9121 194.158ZM0.149204 238.888L0.648064 238.921L0.650347 238.888L0.648064 238.854L0.149204 238.888ZM13.9121 283.617L14.3068 283.31L14.3057 283.308L13.9121 283.617ZM93.0494 179.248V178.748H92.5494V179.248H93.0494ZM187.096 179.248H187.596V178.748H187.096V179.248ZM93.0494 194.158H92.5494V194.658H93.0494V194.158ZM132.044 194.158H132.544V193.658H132.044V194.158ZM132.044 298.527H131.544V299.027H132.044V298.527ZM148.101 298.527V299.027H148.601V298.527H148.101ZM148.101 194.158V193.658H147.601V194.158H148.101ZM187.096 194.158V194.658H187.596V194.158H187.096ZM203.151 179.248V178.748H202.651V179.248H203.151ZM285.729 220.537H285.229V220.555L285.23 220.574L285.729 220.537ZM283.664 237.052L284.138 237.211L284.138 237.211L283.664 237.052ZM275.406 251.504L275.689 251.916L275.742 251.88L275.783 251.832L275.406 251.504ZM238.705 262.973L238.703 262.473L238.663 262.473L238.623 262.479L238.705 262.973ZM224.942 265.266L224.86 264.773L224.786 264.786L224.719 264.819L224.942 265.266ZM220.006 270.427L220.489 270.557L220.489 270.557L220.006 270.427ZM219.208 298.527V299.027H219.708V298.527H219.208ZM203.151 298.527H202.651V299.027H203.151V298.527ZM203.151 272.148H203.651V272.127L203.65 272.105L203.151 272.148ZM204.553 262.731L204.089 262.545L204.089 262.545L204.553 262.731ZM210.033 254.944L209.762 254.524L209.73 254.544L209.701 254.57L210.033 254.944ZM231.824 248.063L231.844 247.563L231.824 247.562L231.804 247.563L231.824 248.063ZM261.643 240.034L261.386 239.606L261.375 239.613L261.643 240.034ZM269.672 220.537L269.179 220.455L269.172 220.496V220.537H269.672ZM268.883 209.777L269.359 209.624L269.359 209.624L268.883 209.777ZM263.262 200.568L262.908 200.922L262.908 200.922L263.262 200.568ZM243.293 194.158V194.658H243.334L243.375 194.651L243.293 194.158ZM219.208 194.158V193.658H218.708V194.158H219.208ZM219.208 244.622L219.316 245.11L219.708 245.024V244.622H219.208ZM203.151 254.944H202.651V256.44L203.551 255.245L203.151 254.944ZM534.608 179.248H535.108V178.748H534.608V179.248ZM509.376 179.248V178.748H509.074L508.934 179.015L509.376 179.248ZM534.608 298.527V299.027H535.108V298.527H534.608ZM518.551 298.527H518.051V299.027H518.551V298.527ZM518.551 194.158H519.051L518.111 193.921L518.551 194.158ZM462.353 298.527V299.027H462.651L462.793 298.764L462.353 298.527ZM438.268 298.527H437.768V299.027H438.268V298.527ZM438.268 179.248V178.748H437.768V179.248H438.268ZM453.177 179.248H453.677V178.748H453.177V179.248ZM453.177 283.617H452.677V284.117H453.177V283.617ZM454.324 283.617V284.117H454.626L454.766 283.85L454.324 283.617ZM491.025 171.867H463.5V172.867H491.025V171.867ZM501.278 166.937C498.597 169.825 494.92 171.587 490.99 171.868L491.061 172.866C495.244 172.566 499.158 170.691 502.011 167.618L501.278 166.937ZM505.435 156.312C505.445 160.252 503.96 164.05 501.278 166.937L502.011 167.618C504.865 164.544 506.446 160.503 506.435 156.309L505.435 156.312ZM463.5 156.811H505.935V155.811H463.5V156.811ZM464 172.367V156.311H463V172.367H464ZM303.433 238.888C303.433 218.306 308.008 203.257 317.206 193.352C326.396 183.454 340.289 178.602 359.131 178.602V177.602C340.126 177.602 325.919 182.498 316.473 192.671C307.033 202.837 302.433 218.18 302.433 238.888H303.433ZM317.099 282.174C307.906 269.646 303.102 254.434 303.433 238.898L302.433 238.877C302.098 254.633 306.969 270.06 316.293 282.766L317.099 282.174ZM336.319 294.713C329.058 291.966 322.484 287.668 317.053 282.12L316.339 282.82C321.871 288.472 328.568 292.849 335.965 295.648L336.319 294.713ZM359.095 298.028C351.352 298.592 343.58 297.46 336.319 294.713L335.965 295.648C343.362 298.447 351.28 299.599 359.168 299.025L359.095 298.028ZM381.362 294.576C374.3 297.322 366.725 298.5 359.163 298.028L359.1 299.026C366.807 299.507 374.527 298.307 381.724 295.508L381.362 294.576ZM400.06 282.123C394.804 287.581 388.423 291.83 381.362 294.576L381.724 295.508C388.921 292.709 395.423 288.379 400.78 282.817L400.06 282.123ZM413.684 236.62C414.533 252.928 409.704 269.026 400.018 282.173L400.823 282.767C410.646 269.433 415.544 253.107 414.682 236.568L413.684 236.62ZM364.832 176.307C381.361 177.447 393.544 183.138 401.607 193.181C409.681 203.237 413.683 217.732 413.683 236.594H414.683C414.683 217.608 410.657 202.856 402.387 192.555C394.106 182.241 381.632 176.463 364.9 175.309L364.832 176.307ZM364.205 184.624C365.218 181.788 365.613 178.768 365.364 175.767L364.368 175.849C364.605 178.709 364.228 181.586 363.263 184.288L364.205 184.624ZM359.491 192.212C361.585 190.047 363.192 187.46 364.205 184.624L363.263 184.288C362.298 186.99 360.767 189.454 358.772 191.517L359.491 192.212ZM375.633 193.461C370.364 191.435 364.681 190.716 359.074 191.368L359.189 192.361C364.636 191.728 370.155 192.426 375.274 194.395L375.633 193.461ZM389.327 203.004C385.601 198.762 380.902 195.488 375.633 193.461L375.274 194.395C380.392 196.363 384.956 199.544 388.575 203.664L389.327 203.004ZM398.625 236.626C399.388 224.712 396.126 212.888 389.363 203.05L388.539 203.617C395.175 213.269 398.376 224.872 397.627 236.562L398.625 236.626ZM389.364 271.282C396.296 261.09 399.561 248.846 398.625 236.556L397.628 236.632C398.547 248.696 395.342 260.715 388.538 270.72L389.364 271.282ZM375.582 280.74C380.832 278.721 385.538 275.501 389.321 271.337L388.581 270.665C384.902 274.713 380.328 277.843 375.223 279.807L375.582 280.74ZM359.082 282.968C364.68 283.523 370.331 282.76 375.582 280.74L375.223 279.807C370.117 281.77 364.624 282.512 359.181 281.972L359.082 282.968ZM342.63 280.873C347.899 282.9 353.581 283.618 359.189 282.967L359.074 281.973C353.627 282.606 348.107 281.908 342.989 279.94L342.63 280.873ZM328.936 271.331C332.662 275.572 337.361 278.847 342.63 280.873L342.989 279.94C337.871 277.971 333.307 274.791 329.688 270.671L328.936 271.331ZM319.64 236.535C318.176 248.882 321.493 261.321 328.911 271.299L329.713 270.703C322.448 260.929 319.2 248.746 320.633 236.653L319.64 236.535ZM320.792 219.3C319.749 225.01 319.361 230.82 319.637 236.618L320.636 236.57C320.364 230.849 320.746 225.115 321.776 219.48L320.792 219.3ZM327.759 204.189C324.504 208.73 322.142 213.847 320.798 219.27L321.769 219.51C323.082 214.211 325.39 209.209 328.571 204.772L327.759 204.189ZM341.751 193.691C336.192 195.796 331.343 199.433 327.766 204.18L328.564 204.781C332.028 200.185 336.723 196.664 342.105 194.626L341.751 193.691ZM351.103 193.658H341.928V194.658H351.103V193.658ZM355.391 190.318L350.803 193.758L351.403 194.558L355.991 191.118L355.391 190.318ZM358.634 178.151C359.063 182.513 357.872 186.882 355.287 190.423L356.095 191.012C358.824 187.273 360.082 182.66 359.629 178.053L358.634 178.151ZM82.2265 283.617V298.527H83.2265V283.617H82.2265ZM58.6414 284.117H82.7265V283.117H58.6414V284.117ZM41.2949 282.469C46.9094 284.273 52.8494 284.834 58.7025 284.113L58.5802 283.121C52.8711 283.824 47.0773 283.277 41.6009 281.517L41.2949 282.469ZM26.1892 273.662C30.5259 277.659 35.6804 280.664 41.2949 282.469L41.6009 281.517C36.1246 279.756 31.0969 276.825 26.8669 272.927L26.1892 273.662ZM16.8563 238.829C15.3925 251.176 18.7096 263.614 26.1268 273.593L26.9294 272.996C19.6646 263.223 16.4156 251.04 17.8493 238.946L16.8563 238.829ZM26.1268 204.182C18.7096 214.161 15.3925 226.6 16.8563 238.946L17.8493 238.829C16.4156 226.736 19.6646 214.552 26.9294 204.779L26.1268 204.182ZM41.2949 195.306C35.6804 197.111 30.5259 200.116 26.1892 204.113L26.8669 204.848C31.0969 200.95 36.1246 198.019 41.6009 196.258L41.2949 195.306ZM58.7025 193.662C52.8494 192.941 46.9095 193.502 41.2949 195.306L41.6009 196.258C47.0773 194.498 52.8711 193.951 58.5802 194.654L58.7025 193.662ZM81.5795 193.658H58.6414V194.658H81.5795V193.658ZM81.0795 179.248V194.158H82.0795V179.248H81.0795ZM56.3476 179.748H81.5795V178.748H56.3476V179.748ZM14.3068 194.465C22.1902 184.329 36.8981 179.748 56.3476 179.748V178.748C36.8022 178.748 21.6908 183.343 13.5174 193.851L14.3068 194.465ZM0.648064 238.854C-0.432712 222.88 4.43183 207.07 14.3057 194.467L13.5185 193.85C3.49243 206.648 -1.44709 222.701 -0.349655 238.921L0.648064 238.854ZM14.3057 283.308C4.43183 270.705 -0.432712 254.895 0.648064 238.921L-0.349655 238.854C-1.44709 255.074 3.49243 271.127 13.5185 283.925L14.3057 283.308ZM56.3476 298.027C36.8981 298.027 22.1902 293.446 14.3068 283.31L13.5174 283.924C21.6908 294.432 36.8022 299.027 56.3476 299.027V298.027ZM82.7265 298.027H56.3476V299.027H82.7265V298.027ZM93.0494 179.748H187.096V178.748H93.0494V179.748ZM93.5494 194.158V179.248H92.5494V194.158H93.5494ZM132.044 193.658H93.0494V194.658H132.044V193.658ZM132.544 298.527V194.158H131.544V298.527H132.544ZM148.101 298.027H132.044V299.027H148.101V298.027ZM147.601 194.158V298.527H148.601V194.158H147.601ZM187.096 193.658H148.101V194.658H187.096V193.658ZM186.596 179.248V194.158H187.596V179.248H186.596ZM244.44 178.748H203.151V179.748H244.44V178.748ZM286.229 220.537C286.229 206.697 282.768 196.225 275.76 189.217C268.752 182.209 258.28 178.748 244.44 178.748V179.748C258.126 179.748 268.298 183.17 275.053 189.924C281.807 196.679 285.229 206.851 285.229 220.537H286.229ZM284.138 237.211C285.931 231.833 286.641 226.154 286.227 220.501L285.23 220.574C285.634 226.095 284.94 231.642 283.19 236.894L284.138 237.211ZM275.783 251.832C279.506 247.557 282.346 242.588 284.138 237.211L283.19 236.894C281.439 242.147 278.666 247 275.029 251.175L275.783 251.832ZM238.708 263.473C251.915 263.415 264.799 259.388 275.689 251.916L275.124 251.091C264.399 258.45 251.71 262.416 238.703 262.473L238.708 263.473ZM225.025 265.76L238.788 263.466L238.623 262.479L224.86 264.773L225.025 265.76ZM220.855 268.707C220.855 268.592 220.913 268.418 221.125 268.176C221.335 267.937 221.652 267.679 222.066 267.403C222.895 266.85 224.01 266.292 225.166 265.714L224.719 264.819C223.581 265.388 222.403 265.976 221.511 266.571C221.065 266.868 220.666 267.183 220.373 267.518C220.083 267.849 219.855 268.249 219.855 268.707H220.855ZM220.489 270.557C220.676 269.86 220.855 269.209 220.855 268.707H219.855C219.855 269.045 219.726 269.541 219.523 270.298L220.489 270.557ZM219.708 275.589C219.708 273.478 220.153 271.813 220.489 270.557L219.523 270.298C219.185 271.561 218.708 273.336 218.708 275.589H219.708ZM219.708 298.527V275.589H218.708V298.527H219.708ZM203.151 299.027H219.208V298.027H203.151V299.027ZM202.651 272.148V298.527H203.651V272.148H202.651ZM204.089 262.545C202.866 265.604 202.374 268.907 202.653 272.19L203.65 272.105C203.383 268.978 203.852 265.831 205.018 262.916L204.089 262.545ZM209.701 254.57C207.235 256.755 205.313 259.486 204.089 262.545L205.018 262.916C206.184 260.002 208.014 257.4 210.364 255.318L209.701 254.57ZM231.804 247.563C223.968 247.882 216.36 250.284 209.762 254.524L210.303 255.365C216.751 251.222 224.187 248.874 231.844 248.562L231.804 247.563ZM261.375 239.613C252.574 245.215 242.269 247.989 231.844 247.563L231.804 248.562C242.432 248.997 252.938 246.168 261.912 240.456L261.375 239.613ZM269.172 220.537C269.172 225.668 268.601 229.609 267.345 232.677C266.097 235.729 264.163 237.94 261.386 239.606L261.901 240.463C264.859 238.688 266.939 236.311 268.271 233.056C269.596 229.816 270.172 225.728 270.172 220.537H269.172ZM268.407 209.93C269.497 213.327 269.762 216.935 269.179 220.455L270.165 220.619C270.774 216.942 270.498 213.173 269.359 209.624L268.407 209.93ZM262.908 200.922C265.431 203.445 267.316 206.533 268.407 209.93L269.359 209.624C268.22 206.076 266.251 202.85 263.615 200.215L262.908 200.922ZM253.9 195.423C257.297 196.514 260.385 198.399 262.908 200.922L263.615 200.215C260.98 197.579 257.754 195.61 254.206 194.471L253.9 195.423ZM243.375 194.651C246.895 194.068 250.503 194.333 253.9 195.423L254.206 194.471C250.657 193.332 246.888 193.056 243.211 193.665L243.375 194.651ZM219.208 194.658H243.293V193.658H219.208V194.658ZM219.708 244.622V194.158H218.708V244.622H219.708ZM203.551 255.245C207.429 250.094 213.02 246.5 219.316 245.11L219.1 244.134C212.572 245.575 206.773 249.302 202.752 254.643L203.551 255.245ZM202.651 179.248V254.944H203.651V179.248H202.651ZM534.608 178.748H509.376V179.748H534.608V178.748ZM535.108 298.527V179.248H534.108V298.527H535.108ZM518.551 299.027H534.608V298.027H518.551V299.027ZM518.051 194.158V298.527H519.051V194.158H518.051ZM462.793 298.764L518.991 194.395L518.111 193.921L461.912 298.29L462.793 298.764ZM438.268 299.027H462.353V298.027H438.268V299.027ZM437.768 179.248V298.527H438.768V179.248H437.768ZM453.177 178.748H438.268V179.748H453.177V178.748ZM453.677 283.617V179.248H452.677V283.617H453.677ZM454.324 283.117H453.177V284.117H454.324V283.117ZM508.934 179.015L453.882 283.384L454.766 283.85L509.818 179.482L508.934 179.015Z" fill="white" fill-opacity="0.2" mask="url(#path-1-inside-1_168_254)"/>
</g>
<g filter="url(#filter1_b_168_254)">
<mask id="path-3-inside-2_168_254" fill="white">
<path fill-rule="evenodd" clip-rule="evenodd" d="M98.3401 0H73.1081L18.0567 104.368V0H2V120.425H27.2319L82.2834 14.9098V120.425H98.3401V0ZM331.162 0H237.115V14.9098H276.11V120.425H292.167V14.9098H331.162V0ZM347.219 56.1984V0H422.915V14.9098H363.276V45.8762C357.001 47.6099 351.402 51.2097 347.219 56.1984ZM363.276 75.6958V104.368H422.915V120.425H347.219V77.9896C346.889 73.9917 347.436 69.97 348.823 66.2059C350.21 62.4417 352.402 59.0262 355.248 56.1984C361.823 51.2318 369.962 48.79 378.186 49.3169H419.474V64.2267H377.039C372.451 64.2267 367.864 65.3736 366.717 67.6674C365.521 68.6143 364.58 69.8442 363.98 71.2459C363.379 72.6477 363.137 74.1771 363.276 75.6958ZM520.402 120.425H536.459V0H471.084H460.763H455.028V94.0763C455.008 95.2897 453.862 100.947 451.587 103.222C449.787 105.022 445.868 104.703 443.156 104.482C442.412 104.422 441.759 104.369 441.265 104.369V120.425C449.14 120.994 456.935 118.532 463.056 113.544C465.935 111.239 468.181 108.241 469.586 104.831C470.99 101.421 471.505 97.7101 471.084 94.0464H471.084L471.084 94.0463V14.9098H520.402V120.425ZM773.867 0H849.563V14.9098H789.924V120.425H773.867V0ZM756.664 0H731.432L676.38 104.368V0H660.324V120.425H684.409L740.607 14.9098V120.425H756.664V0ZM865.621 56.1984V0H941.317V14.9098H881.678V45.8762C875.403 47.6099 869.803 51.2097 865.621 56.1984ZM881.678 75.6958V104.368H941.317V120.425H865.621V77.9896C865.29 73.9917 865.838 69.97 867.224 66.2059C868.611 62.4417 870.804 59.0262 873.649 56.1984C880.311 51.4043 888.387 48.9815 896.587 49.3169H939.023V64.2267H895.441C893.576 64.0686 891.7 64.2922 889.925 64.8837C888.15 65.4753 886.515 66.4225 885.118 67.6674C883.923 68.6143 882.982 69.8442 882.381 71.2459C881.781 72.6477 881.539 74.1771 881.678 75.6958ZM1043.39 66.5205V120.425H1059.45V0H1043.39V51.6107H995.22C986.973 50.8611 978.755 53.3266 972.282 58.4922C969.39 61.0398 967.151 64.2444 965.754 67.8367C964.357 71.429 963.842 75.3041 964.254 79.1365V120.425H980.31V77.9896C980.203 74.7769 980.997 71.5984 982.604 68.8143C986.195 67.162 990.123 66.3763 994.073 66.5205H1043.39ZM980.31 48.17V0H964.254V58.4922C965.971 55.666 968.31 53.2678 971.092 51.4795C973.874 49.6911 977.026 48.5593 980.31 48.17ZM1075.5 0H1169.55V14.9098H1130.56V120.425H1114.5V14.9098H1075.5V0ZM205.002 66.5205V119.278H219.912V0H205.002V51.6107H156.832C148.585 50.8611 140.367 53.3266 133.894 58.4922C131.002 61.0398 128.763 64.2444 127.366 67.8367C125.969 71.429 125.454 75.3041 125.866 79.1365V119.278H141.923V77.9896C141.923 73.4019 141.923 71.1081 144.216 68.8143C146.51 66.5205 149.951 66.5205 155.685 66.5205H205.002ZM141.923 0V48.17C138.639 48.5593 135.486 49.6911 132.704 51.4795C129.922 53.2679 127.584 55.666 125.866 58.4922V0H141.923ZM629.357 120.425H645.414V0H580.041H569.718H565.131L565.131 94.0464C564.837 97.3602 563.648 100.532 561.69 103.222C558.054 104.685 554.075 105.083 550.221 104.369V120.425C558.096 120.994 565.891 118.532 572.012 113.544C574.891 111.239 577.138 108.241 578.542 104.831C579.946 101.421 580.462 97.7101 580.041 94.0464L580.041 14.9098H629.357V120.425Z"/>
</mask>
<path fill-rule="evenodd" clip-rule="evenodd" d="M98.3401 0H73.1081L18.0567 104.368V0H2V120.425H27.2319L82.2834 14.9098V120.425H98.3401V0ZM331.162 0H237.115V14.9098H276.11V120.425H292.167V14.9098H331.162V0ZM347.219 56.1984V0H422.915V14.9098H363.276V45.8762C357.001 47.6099 351.402 51.2097 347.219 56.1984ZM363.276 75.6958V104.368H422.915V120.425H347.219V77.9896C346.889 73.9917 347.436 69.97 348.823 66.2059C350.21 62.4417 352.402 59.0262 355.248 56.1984C361.823 51.2318 369.962 48.79 378.186 49.3169H419.474V64.2267H377.039C372.451 64.2267 367.864 65.3736 366.717 67.6674C365.521 68.6143 364.58 69.8442 363.98 71.2459C363.379 72.6477 363.137 74.1771 363.276 75.6958ZM520.402 120.425H536.459V0H471.084H460.763H455.028V94.0763C455.008 95.2897 453.862 100.947 451.587 103.222C449.787 105.022 445.868 104.703 443.156 104.482C442.412 104.422 441.759 104.369 441.265 104.369V120.425C449.14 120.994 456.935 118.532 463.056 113.544C465.935 111.239 468.181 108.241 469.586 104.831C470.99 101.421 471.505 97.7101 471.084 94.0464H471.084L471.084 94.0463V14.9098H520.402V120.425ZM773.867 0H849.563V14.9098H789.924V120.425H773.867V0ZM756.664 0H731.432L676.38 104.368V0H660.324V120.425H684.409L740.607 14.9098V120.425H756.664V0ZM865.621 56.1984V0H941.317V14.9098H881.678V45.8762C875.403 47.6099 869.803 51.2097 865.621 56.1984ZM881.678 75.6958V104.368H941.317V120.425H865.621V77.9896C865.29 73.9917 865.838 69.97 867.224 66.2059C868.611 62.4417 870.804 59.0262 873.649 56.1984C880.311 51.4043 888.387 48.9815 896.587 49.3169H939.023V64.2267H895.441C893.576 64.0686 891.7 64.2922 889.925 64.8837C888.15 65.4753 886.515 66.4225 885.118 67.6674C883.923 68.6143 882.982 69.8442 882.381 71.2459C881.781 72.6477 881.539 74.1771 881.678 75.6958ZM1043.39 66.5205V120.425H1059.45V0H1043.39V51.6107H995.22C986.973 50.8611 978.755 53.3266 972.282 58.4922C969.39 61.0398 967.151 64.2444 965.754 67.8367C964.357 71.429 963.842 75.3041 964.254 79.1365V120.425H980.31V77.9896C980.203 74.7769 980.997 71.5984 982.604 68.8143C986.195 67.162 990.123 66.3763 994.073 66.5205H1043.39ZM980.31 48.17V0H964.254V58.4922C965.971 55.666 968.31 53.2678 971.092 51.4795C973.874 49.6911 977.026 48.5593 980.31 48.17ZM1075.5 0H1169.55V14.9098H1130.56V120.425H1114.5V14.9098H1075.5V0ZM205.002 66.5205V119.278H219.912V0H205.002V51.6107H156.832C148.585 50.8611 140.367 53.3266 133.894 58.4922C131.002 61.0398 128.763 64.2444 127.366 67.8367C125.969 71.429 125.454 75.3041 125.866 79.1365V119.278H141.923V77.9896C141.923 73.4019 141.923 71.1081 144.216 68.8143C146.51 66.5205 149.951 66.5205 155.685 66.5205H205.002ZM141.923 0V48.17C138.639 48.5593 135.486 49.6911 132.704 51.4795C129.922 53.2679 127.584 55.666 125.866 58.4922V0H141.923ZM629.357 120.425H645.414V0H580.041H569.718H565.131L565.131 94.0464C564.837 97.3602 563.648 100.532 561.69 103.222C558.054 104.685 554.075 105.083 550.221 104.369V120.425C558.096 120.994 565.891 118.532 572.012 113.544C574.891 111.239 577.138 108.241 578.542 104.831C579.946 101.421 580.462 97.7101 580.041 94.0464L580.041 14.9098H629.357V120.425Z" fill="white" fill-opacity="0.5"/>
<path d="M73.1081 0V-0.5H72.8066L72.6659 -0.233274L73.1081 0ZM98.3401 0H98.8401V-0.5H98.3401V0ZM18.0567 104.368H17.5567L18.4989 104.602L18.0567 104.368ZM18.0567 0H18.5567V-0.5H18.0567V0ZM2 0V-0.5H1.5V0H2ZM2 120.425H1.5V120.925H2V120.425ZM27.2319 120.425V120.925H27.535L27.6752 120.656L27.2319 120.425ZM82.2834 14.9098H82.7834L81.8401 14.6785L82.2834 14.9098ZM82.2834 120.425H81.7834V120.925H82.2834V120.425ZM98.3401 120.425V120.925H98.8401V120.425H98.3401ZM237.115 0V-0.5H236.615V0H237.115ZM331.162 0H331.662V-0.5H331.162V0ZM237.115 14.9098H236.615V15.4098H237.115V14.9098ZM276.11 14.9098H276.61V14.4098H276.11V14.9098ZM276.11 120.425H275.61V120.925H276.11V120.425ZM292.167 120.425V120.925H292.667V120.425H292.167ZM292.167 14.9098V14.4098H291.667V14.9098H292.167ZM331.162 14.9098V15.4098H331.662V14.9098H331.162ZM347.219 0V-0.5H346.719V0H347.219ZM347.219 56.1984H346.719V57.5731L347.602 56.5196L347.219 56.1984ZM422.915 0H423.415V-0.5H422.915V0ZM422.915 14.9098V15.4098H423.415V14.9098H422.915ZM363.276 14.9098V14.4098H362.776V14.9098H363.276ZM363.276 45.8762L363.409 46.3582L363.776 46.2568V45.8762H363.276ZM363.276 104.368H362.776V104.868H363.276V104.368ZM363.276 75.6958H363.776V75.673L363.774 75.6503L363.276 75.6958ZM422.915 104.368H423.415V103.868H422.915V104.368ZM422.915 120.425V120.925H423.415V120.425H422.915ZM347.219 120.425H346.719V120.925H347.219V120.425ZM347.219 77.9896H347.719V77.9689L347.718 77.9484L347.219 77.9896ZM348.823 66.2059L348.354 66.033L348.354 66.033L348.823 66.2059ZM355.248 56.1984L354.946 55.7994L354.919 55.8198L354.895 55.8437L355.248 56.1984ZM378.186 49.3169L378.154 49.8159L378.17 49.8169H378.186V49.3169ZM419.474 49.3169H419.974V48.8169H419.474V49.3169ZM419.474 64.2267V64.7267H419.974V64.2267H419.474ZM366.717 67.6674L367.027 68.0594L367.114 67.9904L367.164 67.8911L366.717 67.6674ZM363.98 71.2459L364.439 71.4429L364.439 71.4429L363.98 71.2459ZM536.459 120.425V120.925H536.959V120.425H536.459ZM520.402 120.425H519.902V120.925H520.402V120.425ZM536.459 0H536.959V-0.5H536.459V0ZM455.028 0V-0.5H454.528V0H455.028ZM455.028 94.0763L455.528 94.0842V94.0763H455.028ZM451.587 103.222L451.233 102.868L451.233 102.868L451.587 103.222ZM443.156 104.482L443.115 104.981L443.115 104.981L443.156 104.482ZM441.265 104.369V103.869H440.765V104.369H441.265ZM441.265 120.425H440.765V120.89L441.229 120.924L441.265 120.425ZM463.056 113.544L462.744 113.153L462.74 113.156L463.056 113.544ZM469.586 104.831L469.123 104.64L469.123 104.64L469.586 104.831ZM471.084 94.0464L471.581 93.9893L471.53 93.5464H471.084V94.0464ZM471.084 94.0464L470.98 93.5573L471.084 94.5464V94.0464ZM471.084 94.0463L471.188 94.5353L471.584 94.4512V94.0463H471.084ZM471.084 14.9098V14.4098H470.584V14.9098H471.084ZM520.402 14.9098H520.902V14.4098H520.402V14.9098ZM849.563 0H850.063V-0.5H849.563V0ZM773.867 0V-0.5H773.367V0H773.867ZM849.563 14.9098V15.4098H850.063V14.9098H849.563ZM789.924 14.9098V14.4098H789.424V14.9098H789.924ZM789.924 120.425V120.925H790.424V120.425H789.924ZM773.867 120.425H773.367V120.925H773.867V120.425ZM731.432 0V-0.5H731.13L730.99 -0.233274L731.432 0ZM756.664 0H757.164V-0.5H756.664V0ZM676.38 104.368H675.88L676.823 104.602L676.38 104.368ZM676.38 0H676.88V-0.5H676.38V0ZM660.324 0V-0.5H659.824V0H660.324ZM660.324 120.425H659.824V120.925H660.324V120.425ZM684.409 120.425V120.925H684.709L684.85 120.66L684.409 120.425ZM740.607 14.9098H741.107L740.166 14.6747L740.607 14.9098ZM740.607 120.425H740.107V120.925H740.607V120.425ZM756.664 120.425V120.925H757.164V120.425H756.664ZM865.621 0V-0.5H865.121V0H865.621ZM865.621 56.1984H865.121V57.573L866.004 56.5196L865.621 56.1984ZM941.317 0H941.817V-0.5H941.317V0ZM941.317 14.9098V15.4098H941.817V14.9098H941.317ZM881.678 14.9098V14.4098H881.178V14.9098H881.678ZM881.678 45.8762L881.811 46.3582L882.178 46.2568V45.8762H881.678ZM881.678 104.368H881.178V104.868H881.678V104.368ZM881.678 75.6958H882.178V75.673L882.176 75.6503L881.678 75.6958ZM941.317 104.368H941.817V103.868H941.317V104.368ZM941.317 120.425V120.925H941.817V120.425H941.317ZM865.621 120.425H865.121V120.925H865.621V120.425ZM865.621 77.9896H866.121V77.9689L866.119 77.9484L865.621 77.9896ZM867.224 66.2059L867.694 66.3787L867.694 66.3787L867.224 66.2059ZM873.649 56.1984L873.357 55.7926L873.325 55.8158L873.297 55.8437L873.649 56.1984ZM896.587 49.3169L896.567 49.8165L896.577 49.8169H896.587V49.3169ZM939.023 49.3169H939.523V48.8169H939.023V49.3169ZM939.023 64.2267V64.7267H939.523V64.2267H939.023ZM895.441 64.2267L895.398 64.7249L895.419 64.7267H895.441V64.2267ZM889.925 64.8837L889.767 64.4094L889.767 64.4094L889.925 64.8837ZM885.118 67.6674L885.429 68.0594L885.44 68.0504L885.451 68.0407L885.118 67.6674ZM882.381 71.2459L882.841 71.4429L882.841 71.4429L882.381 71.2459ZM1043.39 120.425H1042.89V120.925H1043.39V120.425ZM1043.39 66.5205H1043.89V66.0205H1043.39V66.5205ZM1059.45 120.425V120.925H1059.95V120.425H1059.45ZM1059.45 0H1059.95V-0.5H1059.45V0ZM1043.39 0V-0.5H1042.89V0H1043.39ZM1043.39 51.6107V52.1107H1043.89V51.6107H1043.39ZM995.22 51.6107L995.175 52.1087L995.197 52.1107H995.22V51.6107ZM972.282 58.4922L971.97 58.1014L971.961 58.109L971.952 58.117L972.282 58.4922ZM965.754 67.8367L966.22 68.0179L966.22 68.0179L965.754 67.8367ZM964.254 79.1365H964.754V79.1097L964.751 79.0831L964.254 79.1365ZM964.254 120.425H963.754V120.925H964.254V120.425ZM980.31 120.425V120.925H980.81V120.425H980.31ZM980.31 77.9896H980.81V77.9812L980.81 77.9728L980.31 77.9896ZM982.604 68.8143L982.395 68.3601L982.251 68.4266L982.171 68.5644L982.604 68.8143ZM994.073 66.5205L994.055 67.0202L994.064 67.0205H994.073V66.5205ZM980.31 0H980.81V-0.5H980.31V0ZM980.31 48.17L980.369 48.6666L980.81 48.6143V48.17H980.31ZM964.254 0V-0.5H963.754V0H964.254ZM964.254 58.4922H963.754V60.2777L964.681 58.7519L964.254 58.4922ZM971.092 51.4795L970.821 51.0589L970.821 51.0589L971.092 51.4795ZM1169.55 0H1170.05V-0.5H1169.55V0ZM1075.5 0V-0.5H1075V0H1075.5ZM1169.55 14.9098V15.4098H1170.05V14.9098H1169.55ZM1130.56 14.9098V14.4098H1130.06V14.9098H1130.56ZM1130.56 120.425V120.925H1131.06V120.425H1130.56ZM1114.5 120.425H1114V120.925H1114.5V120.425ZM1114.5 14.9098H1115V14.4098H1114.5V14.9098ZM1075.5 14.9098H1075V15.4098H1075.5V14.9098ZM205.002 119.278H204.502V119.778H205.002V119.278ZM205.002 66.5205H205.502V66.0205H205.002V66.5205ZM219.912 119.278V119.778H220.412V119.278H219.912ZM219.912 0H220.412V-0.5H219.912V0ZM205.002 0V-0.5H204.502V0H205.002ZM205.002 51.6107V52.1107H205.502V51.6107H205.002ZM156.832 51.6107L156.787 52.1087L156.81 52.1107H156.832V51.6107ZM133.894 58.4922L133.582 58.1014L133.573 58.109L133.564 58.117L133.894 58.4922ZM125.866 79.1365H126.366V79.1097L126.363 79.0831L125.866 79.1365ZM125.866 119.278H125.366V119.778H125.866V119.278ZM141.923 119.278V119.778H142.423V119.278H141.923ZM144.216 68.8143L144.57 69.1679L144.57 69.1679L144.216 68.8143ZM141.923 48.17L141.982 48.6666L142.423 48.6143V48.17H141.923ZM141.923 0H142.423V-0.5H141.923V0ZM132.704 51.4795L132.434 51.0589L132.434 51.0589L132.704 51.4795ZM125.866 58.4922H125.366V60.2776L126.293 58.7519L125.866 58.4922ZM125.866 0V-0.5H125.366V0H125.866ZM645.414 120.425V120.925H645.914V120.425H645.414ZM629.357 120.425H628.857V120.925H629.357V120.425ZM645.414 0H645.914V-0.5H645.414V0ZM565.131 0V-0.5H564.631L564.631 -6.4899e-07L565.131 0ZM565.131 94.0464L565.629 94.0906L565.631 94.0685L565.631 94.0464L565.131 94.0464ZM561.69 103.222L561.877 103.685L562.01 103.632L562.094 103.516L561.69 103.222ZM550.221 104.369L550.312 103.877L549.721 103.767V104.369H550.221ZM550.221 120.425H549.721V120.89L550.185 120.924L550.221 120.425ZM572.012 113.544L571.7 113.153L571.696 113.156L572.012 113.544ZM578.542 104.831L578.079 104.64L578.079 104.64L578.542 104.831ZM580.041 94.0464L579.541 94.0464L579.541 94.075L579.544 94.1035L580.041 94.0464ZM580.041 14.9098V14.4098H579.541L579.541 14.9098L580.041 14.9098ZM629.357 14.9098H629.857V14.4098H629.357V14.9098ZM73.1081 0.5H98.3401V-0.5H73.1081V0.5ZM18.4989 104.602L73.5504 0.233274L72.6659 -0.233274L17.6144 104.135L18.4989 104.602ZM17.5567 0V104.368H18.5567V0H17.5567ZM2 0.5H18.0567V-0.5H2V0.5ZM2.5 120.425V0H1.5V120.425H2.5ZM27.2319 119.925H2V120.925H27.2319V119.925ZM81.8401 14.6785L26.7886 120.194L27.6752 120.656L82.7267 15.141L81.8401 14.6785ZM82.7834 120.425V14.9098H81.7834V120.425H82.7834ZM98.3401 119.925H82.2834V120.925H98.3401V119.925ZM97.8401 0V120.425H98.8401V0H97.8401ZM237.115 0.5H331.162V-0.5H237.115V0.5ZM237.615 14.9098V0H236.615V14.9098H237.615ZM276.11 14.4098H237.115V15.4098H276.11V14.4098ZM276.61 120.425V14.9098H275.61V120.425H276.61ZM292.167 119.925H276.11V120.925H292.167V119.925ZM291.667 14.9098V120.425H292.667V14.9098H291.667ZM331.162 14.4098H292.167V15.4098H331.162V14.4098ZM330.662 0V14.9098H331.662V0H330.662ZM346.719 0V56.1984H347.719V0H346.719ZM422.915 -0.5H347.219V0.5H422.915V-0.5ZM423.415 14.9098V0H422.415V14.9098H423.415ZM363.276 15.4098H422.915V14.4098H363.276V15.4098ZM363.776 45.8762V14.9098H362.776V45.8762H363.776ZM347.602 56.5196C351.72 51.6086 357.232 48.0649 363.409 46.3582L363.143 45.3943C356.77 47.155 351.084 50.8108 346.836 55.8772L347.602 56.5196ZM363.776 104.368V75.6958H362.776V104.368H363.776ZM422.915 103.868H363.276V104.868H422.915V103.868ZM423.415 120.425V104.368H422.415V120.425H423.415ZM347.219 120.925H422.915V119.925H347.219V120.925ZM346.719 77.9896V120.425H347.719V77.9896H346.719ZM348.354 66.033C346.942 69.8655 346.384 73.9603 346.721 78.0308L347.718 77.9484C347.393 74.0232 347.93 70.0745 349.292 66.3787L348.354 66.033ZM354.895 55.8437C351.998 58.7229 349.766 62.2005 348.354 66.033L349.292 66.3787C350.654 62.6829 352.807 59.3295 355.6 56.553L354.895 55.8437ZM378.218 48.818C369.875 48.2834 361.617 50.7607 354.946 55.7994L355.549 56.5974C362.029 51.703 370.05 49.2966 378.154 49.8159L378.218 48.818ZM419.474 48.8169H378.186V49.8169H419.474V48.8169ZM419.974 64.2267V49.3169H418.974V64.2267H419.974ZM377.039 64.7267H419.474V63.7267H377.039V64.7267ZM367.164 67.8911C367.641 66.9365 368.9 66.1292 370.735 65.5648C372.539 65.0095 374.781 64.7267 377.039 64.7267V63.7267C374.709 63.7267 372.363 64.0174 370.44 64.609C368.547 65.1915 366.939 66.1046 366.269 67.4438L367.164 67.8911ZM364.439 71.4429C365.007 70.1175 365.897 68.9546 367.027 68.0594L366.406 67.2755C365.146 68.2739 364.154 69.5708 363.52 71.049L364.439 71.4429ZM363.774 75.6503C363.643 74.2143 363.871 72.7682 364.439 71.4429L363.52 71.049C362.887 72.5271 362.632 74.1398 362.778 75.7413L363.774 75.6503ZM536.459 119.925H520.402V120.925H536.459V119.925ZM535.959 0V120.425H536.959V0H535.959ZM471.084 0.5H536.459V-0.5H471.084V0.5ZM460.763 0.5H471.084V-0.5H460.763V0.5ZM455.028 0.5H460.763V-0.5H455.028V0.5ZM455.528 94.0763V0H454.528V94.0763H455.528ZM451.941 103.575C453.17 102.346 454.054 100.261 454.631 98.3991C455.21 96.5303 455.517 94.7602 455.527 94.0842L454.528 94.0685C454.519 94.6058 454.243 96.2711 453.675 98.103C453.106 99.9417 452.279 101.823 451.233 102.868L451.941 103.575ZM443.115 104.981C444.464 105.09 446.162 105.229 447.751 105.108C449.324 104.988 450.909 104.607 451.941 103.575L451.233 102.868C450.465 103.636 449.19 103.996 447.675 104.111C446.178 104.225 444.559 104.095 443.196 103.984L443.115 104.981ZM441.265 104.869C441.734 104.869 442.363 104.919 443.115 104.981L443.196 103.984C442.461 103.924 441.784 103.869 441.265 103.869V104.869ZM441.765 120.425V104.369H440.765V120.425H441.765ZM462.74 113.156C456.718 118.064 449.049 120.486 441.301 119.927L441.229 120.924C449.231 121.501 457.152 119 463.372 113.931L462.74 113.156ZM469.123 104.64C467.751 107.972 465.556 110.901 462.744 113.153L463.369 113.934C466.313 111.576 468.612 108.509 470.048 105.021L469.123 104.64ZM470.588 94.1035C470.999 97.6831 470.495 101.309 469.123 104.64L470.048 105.021C471.484 101.533 472.012 97.7371 471.581 93.9893L470.588 94.1035ZM471.084 94.5464H471.084V93.5464H471.084V94.5464ZM470.98 93.5572L470.98 93.5573L471.188 94.5355L471.188 94.5353L470.98 93.5572ZM470.584 14.9098V94.0463H471.584V14.9098H470.584ZM520.402 14.4098H471.084V15.4098H520.402V14.4098ZM520.902 120.425V14.9098H519.902V120.425H520.902ZM849.563 -0.5H773.867V0.5H849.563V-0.5ZM850.063 14.9098V0H849.063V14.9098H850.063ZM789.924 15.4098H849.563V14.4098H789.924V15.4098ZM790.424 120.425V14.9098H789.424V120.425H790.424ZM773.867 120.925H789.924V119.925H773.867V120.925ZM773.367 0V120.425H774.367V0H773.367ZM731.432 0.5H756.664V-0.5H731.432V0.5ZM676.823 104.602L731.874 0.233274L730.99 -0.233274L675.938 104.135L676.823 104.602ZM675.88 0V104.368H676.88V0H675.88ZM660.324 0.5H676.38V-0.5H660.324V0.5ZM660.824 120.425V0H659.824V120.425H660.824ZM684.409 119.925H660.324V120.925H684.409V119.925ZM740.166 14.6747L683.967 120.19L684.85 120.66L741.048 15.1448L740.166 14.6747ZM741.107 120.425V14.9098H740.107V120.425H741.107ZM756.664 119.925H740.607V120.925H756.664V119.925ZM756.164 0V120.425H757.164V0H756.164ZM865.121 0V56.1984H866.121V0H865.121ZM941.317 -0.5H865.621V0.5H941.317V-0.5ZM941.817 14.9098V0H940.817V14.9098H941.817ZM881.678 15.4098H941.317V14.4098H881.678V15.4098ZM882.178 45.8762V14.9098H881.178V45.8762H882.178ZM866.004 56.5196C870.121 51.6086 875.634 48.0649 881.811 46.3582L881.544 45.3943C875.172 47.155 869.485 50.8108 865.238 55.8772L866.004 56.5196ZM882.178 104.368V75.6958H881.178V104.368H882.178ZM941.317 103.868H881.678V104.868H941.317V103.868ZM941.817 120.425V104.368H940.817V120.425H941.817ZM865.621 120.925H941.317V119.925H865.621V120.925ZM865.121 77.9896V120.425H866.121V77.9896H865.121ZM866.755 66.033C865.343 69.8655 864.786 73.9603 865.123 78.0308L866.119 77.9484C865.795 74.0232 866.332 70.0745 867.694 66.3787L866.755 66.033ZM873.297 55.8437C870.4 58.7229 868.167 62.2005 866.755 66.033L867.694 66.3787C869.055 62.683 871.208 59.3295 874.002 56.553L873.297 55.8437ZM896.608 48.8173C888.296 48.4773 880.11 50.9332 873.357 55.7926L873.941 56.6042C880.512 51.8755 888.478 49.4856 896.567 49.8165L896.608 48.8173ZM939.023 48.8169H896.587V49.8169H939.023V48.8169ZM939.523 64.2267V49.3169H938.523V64.2267H939.523ZM895.441 64.7267H939.023V63.7267H895.441V64.7267ZM890.083 65.3581C891.793 64.788 893.602 64.5726 895.398 64.7249L895.483 63.7285C893.551 63.5647 891.606 63.7963 889.767 64.4094L890.083 65.3581ZM885.451 68.0407C886.797 66.8409 888.373 65.9282 890.083 65.3581L889.767 64.4094C887.928 65.0225 886.233 66.0041 884.786 67.2942L885.451 68.0407ZM882.841 71.4429C883.409 70.1175 884.298 68.9546 885.429 68.0594L884.808 67.2755C883.547 68.2739 882.555 69.5708 881.922 71.049L882.841 71.4429ZM882.176 75.6503C882.044 74.2143 882.273 72.7683 882.841 71.4429L881.922 71.049C881.288 72.5271 881.033 74.1398 881.18 75.7413L882.176 75.6503ZM1043.89 120.425V66.5205H1042.89V120.425H1043.89ZM1059.45 119.925H1043.39V120.925H1059.45V119.925ZM1058.95 0V120.425H1059.95V0H1058.95ZM1043.39 0.5H1059.45V-0.5H1043.39V0.5ZM1043.89 51.6107V0H1042.89V51.6107H1043.89ZM995.22 52.1107H1043.39V51.1107H995.22V52.1107ZM972.594 58.883C978.966 53.7978 987.056 51.3708 995.175 52.1087L995.265 51.1128C986.89 50.3515 978.544 52.8554 971.97 58.1014L972.594 58.883ZM966.22 68.0179C967.588 64.5002 969.78 61.3621 972.613 58.8674L971.952 58.117C968.999 60.7175 966.714 63.9886 965.288 67.6555L966.22 68.0179ZM964.751 79.0831C964.348 75.3303 964.852 71.5356 966.22 68.0179L965.288 67.6554C963.862 71.3223 963.337 75.2779 963.757 79.1899L964.751 79.0831ZM964.754 120.425V79.1365H963.754V120.425H964.754ZM980.31 119.925H964.254V120.925H980.31V119.925ZM979.81 77.9896V120.425H980.81V77.9896H979.81ZM982.171 68.5644C980.518 71.4294 979.7 74.7003 979.811 78.0063L980.81 77.9728C980.706 74.8536 981.477 71.7674 983.037 69.0643L982.171 68.5644ZM994.092 66.0208C990.063 65.8737 986.057 66.675 982.395 68.3601L982.813 69.2685C986.333 67.6489 990.183 66.8788 994.055 67.0202L994.092 66.0208ZM1043.39 66.0205H994.073V67.0205H1043.39V66.0205ZM979.81 0V48.17H980.81V0H979.81ZM964.254 0.5H980.31V-0.5H964.254V0.5ZM964.754 58.4922V0H963.754V58.4922H964.754ZM970.821 51.0589C967.976 52.8883 965.584 55.3415 963.827 58.2325L964.681 58.7519C966.359 55.9905 968.644 53.6474 971.362 51.9L970.821 51.0589ZM980.252 47.6735C976.892 48.0717 973.667 49.2294 970.821 51.0589L971.362 51.9C974.08 50.1527 977.16 49.0469 980.369 48.6666L980.252 47.6735ZM1169.55 -0.5H1075.5V0.5H1169.55V-0.5ZM1170.05 14.9098V0H1169.05V14.9098H1170.05ZM1130.56 15.4098H1169.55V14.4098H1130.56V15.4098ZM1131.06 120.425V14.9098H1130.06V120.425H1131.06ZM1114.5 120.925H1130.56V119.925H1114.5V120.925ZM1114 14.9098V120.425H1115V14.9098H1114ZM1075.5 15.4098H1114.5V14.4098H1075.5V15.4098ZM1075 0V14.9098H1076V0H1075ZM205.502 119.278V66.5205H204.502V119.278H205.502ZM219.912 118.778H205.002V119.778H219.912V118.778ZM219.412 0V119.278H220.412V0H219.412ZM205.002 0.5H219.912V-0.5H205.002V0.5ZM205.502 51.6107V0H204.502V51.6107H205.502ZM156.832 52.1107H205.002V51.1107H156.832V52.1107ZM134.206 58.883C140.578 53.7978 148.668 51.3708 156.787 52.1087L156.878 51.1128C148.502 50.3515 140.156 52.8554 133.582 58.1014L134.206 58.883ZM127.832 68.0179C129.2 64.5002 131.392 61.3621 134.225 58.8674L133.564 58.117C130.611 60.7175 128.326 63.9886 126.9 67.6554L127.832 68.0179ZM126.363 79.0831C125.96 75.3303 126.464 71.5356 127.832 68.0179L126.9 67.6554C125.474 71.3223 124.949 75.2779 125.369 79.1899L126.363 79.0831ZM126.366 119.278V79.1365H125.366V119.278H126.366ZM141.923 118.778H125.866V119.778H141.923V118.778ZM141.423 77.9896V119.278H142.423V77.9896H141.423ZM143.863 68.4608C141.4 70.924 141.423 73.4425 141.423 77.9896H142.423C142.423 73.3614 142.445 71.2923 144.57 69.1679L143.863 68.4608ZM155.685 66.0205C152.832 66.0205 150.495 66.0192 148.585 66.3131C146.657 66.6096 145.11 67.2136 143.863 68.4608L144.57 69.1679C145.616 68.1213 146.936 67.5784 148.737 67.3014C150.554 67.0218 152.804 67.0205 155.685 67.0205V66.0205ZM205.002 66.0205H155.685V67.0205H205.002V66.0205ZM142.423 48.17V0H141.423V48.17H142.423ZM132.974 51.9C135.693 50.1527 138.773 49.0469 141.982 48.6666L141.864 47.6735C138.504 48.0717 135.279 49.2294 132.434 51.0589L132.974 51.9ZM126.293 58.7519C127.972 55.9906 130.256 53.6474 132.974 51.9L132.434 51.0589C129.588 52.8883 127.196 55.3415 125.439 58.2325L126.293 58.7519ZM125.366 0V58.4922H126.366V0H125.366ZM141.923 -0.5H125.866V0.5H141.923V-0.5ZM645.414 119.925H629.357V120.925H645.414V119.925ZM644.914 0V120.425H645.914V0H644.914ZM580.041 0.5H645.414V-0.5H580.041V0.5ZM569.718 0.5H580.041V-0.5H569.718V0.5ZM565.131 0.5H569.718V-0.5H565.131V0.5ZM565.631 94.0464L565.631 6.4899e-07L564.631 -6.4899e-07L564.631 94.0464L565.631 94.0464ZM564.633 94.0022C564.347 97.2257 563.19 100.311 561.286 102.927L562.094 103.516C564.105 100.753 565.327 97.4946 565.629 94.0906L564.633 94.0022ZM561.503 102.758C557.955 104.186 554.073 104.574 550.312 103.877L550.13 104.86C554.078 105.592 558.152 105.184 561.877 103.685L561.503 102.758ZM549.721 104.369V120.425H550.721V104.369H549.721ZM550.185 120.924C558.188 121.501 566.109 119 572.328 113.931L571.696 113.156C565.674 118.064 558.005 120.486 550.257 119.927L550.185 120.924ZM572.325 113.934C575.269 111.576 577.568 108.509 579.004 105.021L578.079 104.64C576.707 107.972 574.512 110.901 571.7 113.153L572.325 113.934ZM579.004 105.021C580.44 101.533 580.968 97.7371 580.537 93.9893L579.544 94.1035C579.955 97.6831 579.451 101.309 578.079 104.64L579.004 105.021ZM579.541 14.9098L579.541 94.0464L580.541 94.0464L580.541 14.9098L579.541 14.9098ZM629.357 14.4098H580.041V15.4098H629.357V14.4098ZM629.857 120.425V14.9098H628.857V120.425H629.857Z" fill="white" fill-opacity="0.2" mask="url(#path-3-inside-2_168_254)"/>
</g>
<defs>
<filter id="filter0_b_168_254" x="-5" y="151.311" width="544.609" height="152.357" filterUnits="userSpaceOnUse" color-interpolation-filters="sRGB">
<feFlood flood-opacity="0" result="BackgroundImageFix"/>
<feGaussianBlur in="BackgroundImageFix" stdDeviation="2.5"/>
<feComposite in2="SourceAlpha" operator="in" result="effect1_backgroundBlur_168_254"/>
<feBlend mode="normal" in="SourceGraphic" in2="effect1_backgroundBlur_168_254" result="shape"/>
</filter>
<filter id="filter1_b_168_254" x="-3" y="-5" width="1177.55" height="130.506" filterUnits="userSpaceOnUse" color-interpolation-filters="sRGB">
<feFlood flood-opacity="0" result="BackgroundImageFix"/>
<feGaussianBlur in="BackgroundImageFix" stdDeviation="2.5"/>
<feComposite in2="SourceAlpha" operator="in" result="effect1_backgroundBlur_168_254"/>
<feBlend mode="normal" in="SourceGraphic" in2="effect1_backgroundBlur_168_254" result="shape"/>
</filter>
</defs>
</svg>
