<svg width="360" height="534" viewBox="0 0 360 534" fill="none" xmlns="http://www.w3.org/2000/svg">
<g opacity="0.2" clip-path="url(#clip0_337_291)">
<path d="M-236.28 530.121C-256.595 519.608 -289.158 498.582 -295.805 416.79C-298.792 379.958 -294.087 341.485 -274.743 309.723C-273.077 307.015 -271.096 304.512 -268.843 302.267C-240.761 274.307 -214.023 310.841 -200.43 330.376C-182.132 356.77 -170.108 386.743 -152.183 413.435C-138.217 434.237 -122.309 453.846 -104.16 471.144C-82.8742 491.574 -58.377 508.871 -30.9672 520.055C-9.23689 528.974 14.0251 533.583 37.5202 533.625C211.091 533.625 285.479 300.925 362.331 142.486C378.239 109.679 397.135 77.6934 421.632 50.4791C436.196 34.2252 453.15 19.4624 472.867 9.76961C488.402 2.08998 505.729 -1.48888 523.28 1.34438C585.419 11.1862 583.552 83.0617 583.627 88.6536" stroke="url(#paint0_linear_337_291)" stroke-width="1.33354" stroke-miterlimit="10"/>
<path d="M-232.247 520.353C-251.591 510.362 -282.586 489.933 -287.59 412.391C-289.905 377.422 -284.826 340.963 -265.707 310.841C-264.114 308.256 -262.207 305.877 -260.03 303.758C-232.77 277.289 -206.854 312.108 -193.41 330.823C-175.486 356.098 -163.461 384.729 -145.91 410.229C-132.281 430.23 -116.558 448.725 -99.0067 465.403C-78.1693 484.863 -54.3443 501.415 -27.756 512.077C-6.68704 520.608 15.8294 525.013 38.5655 525.05C122.289 524.976 182.561 469.802 231.331 395.466C280.101 321.13 318.042 225.545 356.057 148.525C371.741 116.837 390.114 85.8946 413.864 59.5005C428.055 43.7684 444.411 29.453 463.381 19.9093C478.393 12.3788 495.123 8.79997 512.077 11.1859C572.05 19.6857 571.303 87.4603 571.453 92.8286" stroke="url(#paint1_linear_337_291)" stroke-width="1.33354" stroke-miterlimit="10"/>
<path d="M-227.691 509.542C-246.064 500.073 -275.938 481.284 -279.374 407.992C-281.017 374.888 -275.565 340.441 -256.744 311.959C-255.129 309.525 -253.25 307.274 -251.143 305.249C-224.704 280.272 -199.609 313.376 -186.464 331.27C-168.764 355.353 -156.888 382.716 -139.636 407.023C-126.23 426.095 -110.861 443.712 -93.7785 459.587C-73.5385 478.153 -50.3858 493.959 -24.619 504.099C-4.18169 512.221 17.6142 516.396 39.6113 516.402C120.721 516.327 179.499 463.614 227.149 392.26C274.798 320.907 312.366 229.049 349.858 154.639C365.169 123.995 383.094 94.0964 406.097 68.597C419.839 53.3123 435.673 39.4442 453.971 30.0497C468.46 22.6683 484.518 19.0149 500.799 21.1026C558.607 28.3349 558.457 92.0087 558.607 97.3025" stroke="url(#paint2_linear_337_291)" stroke-width="1.33354" stroke-miterlimit="10"/>
<path d="M-223.583 499.849C-240.985 490.828 -269.142 472.71 -271.158 403.518C-272.054 372.427 -266.229 339.919 -247.781 313.078C-246.167 310.777 -244.314 308.653 -242.255 306.74C-216.712 283.328 -192.364 314.643 -179.443 331.792C-162.041 354.682 -150.316 380.703 -133.362 403.817C-120.203 422 -105.185 438.766 -88.55 453.846C-68.8329 471.442 -46.3523 486.503 -21.4817 496.121C-1.67041 503.82 19.398 507.789 40.6573 507.827C119.153 507.678 176.362 457.35 222.967 389.128C269.571 320.906 306.69 232.553 343.585 160.678C358.597 131.152 376.148 102.298 398.33 77.693C411.699 62.8557 426.935 49.3604 444.561 40.2641C458.527 32.9573 473.987 29.3039 489.597 30.9442C545.163 36.9089 545.612 96.9294 545.686 101.776" stroke="url(#paint3_linear_337_291)" stroke-width="1.33354" stroke-miterlimit="10"/>
<path d="M-219.7 490.53C-236.131 482.03 -262.495 464.061 -262.943 399.12C-263.167 369.893 -256.968 339.398 -238.745 314.197C-237.221 312.027 -235.441 310.05 -233.442 308.306C-208.646 286.311 -185.195 315.986 -172.424 332.24C-155.395 353.937 -143.669 378.691 -127.089 400.611C-114.174 417.879 -99.5071 433.77 -83.3227 448.031C-64.1284 464.807 -42.3199 479.048 -18.2709 488.144C0.901864 495.461 21.2508 499.226 41.7769 499.253C117.584 499.03 173.225 451.162 218.858 385.997C264.492 320.832 301.013 236.058 337.311 166.718C352.099 138.311 369.127 110.574 390.637 86.7153C403.483 72.4744 418.196 59.352 435.15 50.4048C448.593 43.2471 463.381 39.5191 478.393 40.8612C531.719 45.4839 532.69 101.627 532.69 106.175" stroke="url(#paint4_linear_337_291)" stroke-width="1.33354" stroke-miterlimit="10"/>
<path d="M-215.443 480.687C-230.903 472.71 -255.773 455.412 -254.728 394.72C-254.28 367.357 -247.707 338.875 -229.783 315.314C-228.237 313.298 -226.485 311.449 -224.555 309.797C-200.655 289.293 -178.025 317.253 -165.403 332.687C-148.748 353.265 -137.097 376.677 -120.89 397.404C-108.181 413.747 -93.8697 428.784 -78.1693 442.289C-59.4231 458.096 -38.2869 471.517 -15.1341 480.165C3.40519 487.073 23.0342 490.608 42.8225 490.604C115.94 490.38 170.163 444.899 214.676 382.791C259.189 320.683 295.337 239.487 331.037 172.756C345.526 145.468 362.107 118.775 382.869 95.8109C395.342 82.0174 409.532 69.3423 425.739 60.5443C438.585 53.5357 452.776 49.8077 467.116 50.7024C518.35 54.0576 519.919 106.026 520.068 110.574" stroke="url(#paint5_linear_337_291)" stroke-width="1.33354" stroke-miterlimit="10"/>
<path d="M-211.335 470.771C-225.824 463.24 -249.126 446.837 -246.512 390.321C-245.317 364.822 -238.372 338.353 -220.82 316.433C-219.294 314.536 -217.566 312.811 -215.667 311.288C-192.664 292.275 -170.855 318.52 -158.383 333.208C-142.026 352.519 -130.525 374.664 -114.616 394.198C-102.152 409.624 -88.1924 423.785 -72.9414 436.473C-54.7179 451.385 -34.3285 464.06 -11.9227 472.187C5.95116 478.713 24.8365 482.044 43.868 482.029C114.372 481.731 167.026 438.71 210.493 379.659C253.961 320.608 289.81 243.066 324.763 178.796C339.028 152.7 355.086 126.977 375.102 104.833C387.126 91.5609 400.794 79.3331 416.254 70.6842C428.652 63.8248 442.17 60.0222 455.912 60.6187C504.907 62.6318 507.073 110.797 507.222 114.973" stroke="url(#paint6_linear_337_291)" stroke-width="1.33354" stroke-miterlimit="10"/>
<path d="M-207.302 461.303C-220.82 454.294 -242.479 438.189 -238.297 385.923C-236.43 362.362 -229.11 337.832 -211.783 317.552C-210.308 315.819 -208.656 314.245 -206.854 312.854C-184.597 295.333 -163.611 319.788 -151.437 333.657C-135.379 351.775 -123.877 372.651 -108.343 390.993C-96.1049 405.507 -82.4993 418.815 -67.7133 430.733C-50.0873 444.676 -30.2955 456.605 -8.78581 464.21C8.45488 470.318 26.6195 473.421 44.9137 473.381C112.804 473.083 163.889 432.523 206.385 376.528C248.882 320.534 284.134 246.571 318.564 184.836C332.456 159.858 348.14 135.179 367.335 113.93C378.986 101.105 392.056 89.3249 406.844 80.8997C418.719 74.1147 431.639 70.2376 444.635 70.4613C491.538 71.2069 494.077 115.421 494.301 119.372" stroke="url(#paint7_linear_337_291)" stroke-width="1.33354" stroke-miterlimit="10"/>
<path d="M-202.821 451.013C-215.443 444.527 -235.758 429.615 -230.082 381.524C-227.542 359.827 -219.849 337.31 -202.821 318.67C-201.345 317.077 -199.719 315.629 -197.966 314.346C-176.606 298.315 -156.441 321.13 -144.416 334.104C-128.732 351.103 -117.305 370.638 -102.069 387.787C-90.0848 401.363 -76.8578 413.794 -62.5601 424.917C-45.3822 438.04 -26.3372 449.149 -5.57437 456.232C10.999 461.96 28.4208 464.859 45.9592 464.807C111.235 464.434 160.827 426.259 202.203 373.322C243.579 320.385 278.458 250.075 312.291 190.949C325.958 167.016 341.12 143.455 359.642 123.026C370.77 110.649 383.392 99.2412 397.433 91.0396C408.372 84.5859 420.737 80.9239 433.432 80.3776C478.094 78.4391 483.546 119.745 483.696 123.622" stroke="url(#paint8_linear_337_291)" stroke-width="1.33354" stroke-miterlimit="10"/>
<path d="M-198.638 441.544C-210.289 435.58 -229.11 420.966 -221.866 377.125C-218.579 357.367 -210.588 336.788 -193.858 319.863C-192.385 318.385 -190.786 317.038 -189.078 315.837C-168.614 301.298 -149.271 322.398 -137.395 334.626C-122.085 350.358 -110.732 368.625 -95.7951 384.581C-84.0938 397.274 -71.2152 408.832 -57.3317 419.102C-40.6766 431.404 -22.3038 441.693 -2.43721 448.255C13.5288 453.565 30.251 456.259 47.0798 456.233C109.667 455.785 157.69 420.071 198.021 370.191C238.351 320.31 272.857 253.58 306.017 196.989C319.386 174.174 334.099 151.657 351.875 132.048C362.63 120.193 374.654 109.232 388.023 101.18C398.778 94.6933 410.503 90.7416 422.155 90.2197C464.726 88.2812 470.477 124.443 470.999 128.171" stroke="url(#paint9_linear_337_291)" stroke-width="1.33354" stroke-miterlimit="10"/>
<path d="M-194.232 431.031C-204.837 425.514 -222.388 412.391 -213.65 372.726C-209.692 354.831 -201.327 336.266 -184.821 320.981C-183.436 319.627 -181.909 318.428 -180.265 317.402C-160.623 304.28 -142.1 323.665 -130.375 335.073C-115.363 349.687 -104.16 366.537 -89.5213 381.375C-78.0299 393.13 -65.5073 403.835 -52.1035 413.361C-36.0459 424.694 -18.2705 434.237 0.774473 440.277C16.0681 445.212 32.053 447.679 48.1256 447.583C108.099 447.136 154.554 413.883 193.913 367.059C233.273 320.236 267.181 257.009 299.744 203.028C312.814 181.331 327.154 159.858 344.108 141.144C354.489 129.736 365.916 119.223 378.613 111.32C388.845 104.982 399.898 100.956 410.952 100.061C451.357 96.8553 458.004 128.841 458.602 133.017" stroke="url(#paint10_linear_337_291)" stroke-width="1.33354" stroke-miterlimit="10"/>
<path d="M-190.198 421.711C-199.908 416.715 -215.741 403.816 -205.434 368.326C-200.804 352.37 -191.991 335.743 -175.859 322.099C-174.458 320.906 -172.959 319.833 -171.377 318.893C-152.631 307.262 -134.93 324.932 -123.354 335.52C-108.716 348.941 -97.5125 364.523 -83.2475 378.168C-72.0315 389 -59.8858 398.83 -46.9499 407.544C-31.3405 417.983 -14.312 426.781 3.91149 432.298C18.5707 436.81 33.8314 439.073 49.1714 439.008C106.456 438.487 151.566 407.693 189.731 363.852C227.896 320.011 261.505 260.513 293.47 209.067C306.316 188.488 320.133 168.134 336.34 150.239C346.274 139.279 357.178 129.139 369.128 121.534C378.912 115.271 389.293 111.245 399.674 109.977C437.914 105.354 445.831 134.507 446.353 137.564" stroke="url(#paint11_linear_337_291)" stroke-width="1.33354" stroke-miterlimit="10"/>
<path d="M-185.942 411.72C-194.68 407.172 -209.094 395.243 -197.219 363.928C-191.2 347.733 -180.649 333.603 -166.822 323.218C-165.46 322.155 -164.011 321.207 -162.49 320.385C-144.715 310.245 -127.761 326.275 -116.409 336.043C-102.144 348.27 -90.9406 362.511 -76.9743 374.963C-65.9731 384.85 -54.1835 393.827 -41.7223 401.804C-26.6357 411.348 -10.2794 419.326 7.12253 424.321C21.114 428.428 35.6333 430.462 50.2165 430.36C104.887 429.838 148.429 401.506 185.548 360.722C222.667 319.938 255.828 264.018 287.271 215.107C299.744 195.647 313.112 176.336 328.572 159.262C338.132 148.823 348.439 139.131 359.717 131.675C368.978 125.561 378.762 121.46 388.471 119.82C424.544 113.855 433.507 139.131 434.03 142.039" stroke="url(#paint12_linear_337_291)" stroke-width="1.33354" stroke-miterlimit="10"/>
<path d="M-181.908 401.878C-189.601 397.852 -202.447 386.668 -189.003 359.528C-181.958 345.23 -171.203 333.078 -157.859 324.336C-156.511 323.44 -155.115 322.618 -153.676 321.875C-136.723 313.226 -120.59 327.542 -109.387 336.489C-95.4958 347.598 -84.3675 360.497 -70.7746 371.756C-60.0022 380.718 -48.5398 388.821 -36.4936 395.988C-21.9298 404.636 -6.24563 411.794 10.2601 416.342C23.6308 420.063 37.4576 421.895 51.3375 421.785C103.319 421.189 145.368 395.317 181.441 357.589C217.515 319.862 250.153 267.521 280.998 221.145C293.172 202.804 306.093 184.537 320.88 168.357C329.918 158.366 339.701 149.121 350.307 141.814C358.971 135.849 368.157 131.674 377.194 129.735C411.176 122.354 419.691 144.274 420.288 147.033" stroke="url(#paint13_linear_337_291)" stroke-width="1.33354" stroke-miterlimit="10"/>
<path d="M-178.099 393.155C-184.895 389.651 -195.8 378.168 -180.788 355.055C-172.694 342.774 -161.755 332.62 -148.897 325.455C-147.627 324.709 -146.208 324.113 -144.789 323.442C-128.806 316.209 -113.421 328.885 -102.367 336.937C-88.8488 346.853 -77.7205 358.485 -64.5011 368.55C-53.9838 376.568 -42.9015 383.819 -31.3403 390.247C-17.2246 397.927 -2.21265 404.339 13.4715 408.365C26.171 411.68 39.2575 413.284 52.383 413.137C101.751 412.54 142.231 389.054 177.259 354.384C212.286 319.714 244.476 271.026 274.724 227.26C286.674 209.962 299.147 192.739 313.113 177.38C321.777 167.91 331.038 159.038 340.896 151.955C348.478 146.406 356.97 142.218 365.991 139.578C397.807 130.854 406.396 150.687 406.919 152.328" stroke="url(#paint14_linear_337_291)" stroke-width="1.33354" stroke-miterlimit="10"/>
<path d="M-173.991 384.432C-179.742 381.375 -189.227 372.055 -172.572 353.117C-165.253 344.841 -155.021 333.657 -139.86 326.573C-138.571 325.956 -137.249 325.408 -135.901 324.933C-120.889 319.192 -106.251 330.152 -95.3465 337.459C-82.2017 346.183 -71.1481 356.472 -58.2274 365.344C-47.9772 372.44 -37.2464 378.818 -26.1122 384.432C-12.594 391.217 1.74576 396.883 16.6083 400.387C28.6642 403.279 41.0303 404.681 53.4287 404.563C100.182 403.892 139.094 382.866 173.076 351.253C207.059 319.639 238.8 274.456 268.451 233.299C280.102 217.12 292.126 201.015 305.346 186.476C313.561 177.454 322.299 169.029 331.486 162.17C338.492 156.72 346.336 152.44 354.713 149.495C384.438 139.28 392.43 156.13 392.878 157.472" stroke="url(#paint15_linear_337_291)" stroke-width="1.33354" stroke-miterlimit="10"/>
<path d="M-119.77 325.157C-103.712 325.529 -99.0814 331.494 -88.3266 337.906C-75.6299 345.511 -64.5763 354.459 -51.9543 362.138C-41.9556 368.3 -31.5786 373.829 -20.8848 378.69C-7.87256 384.702 5.74862 389.301 19.7445 392.409C31.1478 394.911 42.7989 396.112 54.4737 395.988C98.6133 395.243 135.957 376.603 168.968 348.046C201.979 319.49 233.049 277.96 262.176 239.339C273.529 224.278 285.105 209.217 297.578 195.572C305.097 187.193 313.263 179.415 322 172.31C328.562 167.052 335.795 162.689 343.51 159.336C371.069 147.705 381.45 160.529 381.899 161.648" stroke="url(#paint16_linear_337_291)" stroke-width="1.33354" stroke-miterlimit="10"/>
<path d="M-111.33 327.318C-98.7828 326.051 -91.9863 332.761 -81.3809 338.353C-68.9829 344.84 -57.9294 352.445 -45.6808 358.932C-35.9474 364.147 -25.923 368.802 -15.6569 372.874C-3.19362 377.973 9.73873 381.843 22.9559 384.431C33.7043 386.531 44.6429 387.506 55.5939 387.339C96.9701 386.593 132.894 370.414 164.785 344.915C196.676 319.415 227.372 281.464 255.977 245.377C266.956 231.435 278.084 217.418 289.81 204.593C296.912 196.725 304.522 189.328 312.59 182.449C318.632 177.344 325.219 172.918 332.232 169.252C357.7 156.13 369.351 164.928 369.799 166.419" stroke="url(#paint17_linear_337_291)" stroke-width="1.33354" stroke-miterlimit="10"/>
<path d="M-105.205 328.81C-92.6578 327.766 -84.8157 334.103 -74.3596 338.875C-62.4098 344.244 -51.3562 350.432 -39.4064 355.726C-29.9959 359.901 -20.3614 363.778 -10.5028 367.133C1.42559 371.216 13.6639 374.332 26.0935 376.453C36.1862 378.132 46.4093 378.906 56.6402 378.765C95.4024 377.944 129.758 364.151 160.604 341.783C191.449 319.415 221.697 284.894 249.704 251.417C260.384 238.593 271.139 225.619 282.118 213.69C289.064 206.159 296.085 198.927 303.18 192.589C308.742 187.601 314.713 183.087 321.03 179.094C335.818 169.774 343.436 168.805 349.56 168.134C352.547 167.761 356.655 168.134 358.448 170.669" stroke="url(#paint18_linear_337_291)" stroke-width="1.33354" stroke-miterlimit="10"/>
<path d="M-97.5127 330.599C-85.9363 330.078 -77.7208 335.52 -67.3394 339.323C-55.763 343.573 -44.7842 348.419 -33.1331 352.52C-24.0214 355.801 -14.6855 358.783 -5.27507 361.318C6.07476 364.487 17.6282 366.879 29.3047 368.476C38.7053 369.785 48.1964 370.333 57.6855 370.116C93.8337 369.296 126.546 357.888 156.496 338.577C186.445 319.266 215.946 288.399 243.43 257.457C253.886 245.751 264.119 233.896 274.351 222.786C280.848 215.703 287.346 208.918 293.769 202.804C298.853 197.933 304.188 193.329 309.752 189.011C309.752 189.011 322.075 179.244 332.681 176.336C332.681 176.336 339.328 174.397 344.78 175.814" stroke="url(#paint19_linear_337_291)" stroke-width="1.33354" stroke-miterlimit="10"/>
<path d="M-89.7451 332.463C-79.4384 333.358 -70.5507 336.862 -60.3187 339.77C-50.0867 342.677 -38.2115 346.405 -26.8592 349.313C-17.9715 351.625 -9.00919 353.787 -0.0468296 355.576C10.9321 357.739 21.8363 359.453 32.4417 360.497C41.1748 361.389 49.9549 361.737 58.7313 361.541C92.2655 360.646 123.484 351.699 152.313 335.445C181.142 319.191 210.195 291.753 237.157 263.57C247.24 252.908 257.098 242.097 266.583 231.807C272.708 225.246 278.608 218.834 284.359 212.944C290.11 207.054 294.143 203.027 298.549 198.852C317.221 181.107 331.112 180.809 331.336 180.883" stroke="url(#paint20_linear_337_291)" stroke-width="1.33354" stroke-miterlimit="10"/>
<path d="M-167.867 311.959C-167.867 311.959 -24.4694 355.428 59.7768 352.893C90.6969 351.998 120.347 345.437 148.131 332.314C222.22 297.197 313.337 176.932 313.86 176.41" stroke="url(#paint21_linear_337_291)" stroke-width="1.33354" stroke-miterlimit="10"/>
</g>
<defs>
<linearGradient id="paint0_linear_337_291" x1="-41.7743" y1="75.0092" x2="277.415" y2="394.748" gradientUnits="userSpaceOnUse">
<stop/>
<stop offset="1" stop-color="white"/>
</linearGradient>
<linearGradient id="paint1_linear_337_291" x1="-38.1897" y1="81.7863" x2="271.814" y2="392.317" gradientUnits="userSpaceOnUse">
<stop/>
<stop offset="1" stop-color="white"/>
</linearGradient>
<linearGradient id="paint2_linear_337_291" x1="-34.3656" y1="88.318" x2="266.288" y2="389.49" gradientUnits="userSpaceOnUse">
<stop/>
<stop offset="1" stop-color="white"/>
</linearGradient>
<linearGradient id="paint3_linear_337_291" x1="-30.8026" y1="95.0952" x2="260.464" y2="386.864" gradientUnits="userSpaceOnUse">
<stop/>
<stop offset="1" stop-color="white"/>
</linearGradient>
<linearGradient id="paint4_linear_337_291" x1="-27.3603" y1="101.97" x2="254.489" y2="384.299" gradientUnits="userSpaceOnUse">
<stop/>
<stop offset="1" stop-color="white"/>
</linearGradient>
<linearGradient id="paint5_linear_337_291" x1="-23.723" y1="108.643" x2="248.866" y2="381.695" gradientUnits="userSpaceOnUse">
<stop/>
<stop offset="1" stop-color="white"/>
</linearGradient>
<linearGradient id="paint6_linear_337_291" x1="-20.1157" y1="115.316" x2="243.094" y2="378.965" gradientUnits="userSpaceOnUse">
<stop/>
<stop offset="1" stop-color="white"/>
</linearGradient>
<linearGradient id="paint7_linear_337_291" x1="-16.598" y1="122.042" x2="237.277" y2="376.348" gradientUnits="userSpaceOnUse">
<stop/>
<stop offset="1" stop-color="white"/>
</linearGradient>
<linearGradient id="paint8_linear_337_291" x1="-12.5127" y1="128.155" x2="233.071" y2="374.149" gradientUnits="userSpaceOnUse">
<stop/>
<stop offset="1" stop-color="white"/>
</linearGradient>
<linearGradient id="paint9_linear_337_291" x1="-9.09174" y1="134.881" x2="227.329" y2="371.703" gradientUnits="userSpaceOnUse">
<stop/>
<stop offset="1" stop-color="white"/>
</linearGradient>
<linearGradient id="paint10_linear_337_291" x1="-5.23032" y1="141.039" x2="222.444" y2="369.101" gradientUnits="userSpaceOnUse">
<stop/>
<stop offset="1" stop-color="white"/>
</linearGradient>
<linearGradient id="paint11_linear_337_291" x1="-1.85428" y1="147.391" x2="217.09" y2="366.707" gradientUnits="userSpaceOnUse">
<stop/>
<stop offset="1" stop-color="white"/>
</linearGradient>
<linearGradient id="paint12_linear_337_291" x1="1.64802" y1="153.215" x2="212.018" y2="363.942" gradientUnits="userSpaceOnUse">
<stop/>
<stop offset="1" stop-color="white"/>
</linearGradient>
<linearGradient id="paint13_linear_337_291" x1="4.56895" y1="159.007" x2="206.237" y2="361.019" gradientUnits="userSpaceOnUse">
<stop/>
<stop offset="1" stop-color="white"/>
</linearGradient>
<linearGradient id="paint14_linear_337_291" x1="6.68249" y1="164.712" x2="200.388" y2="358.754" gradientUnits="userSpaceOnUse">
<stop/>
<stop offset="1" stop-color="white"/>
</linearGradient>
<linearGradient id="paint15_linear_337_291" x1="9.10982" y1="170.587" x2="194.263" y2="356.048" gradientUnits="userSpaceOnUse">
<stop/>
<stop offset="1" stop-color="white"/>
</linearGradient>
<linearGradient id="paint16_linear_337_291" x1="46.542" y1="158.777" x2="215.471" y2="327.994" gradientUnits="userSpaceOnUse">
<stop/>
<stop offset="1" stop-color="white"/>
</linearGradient>
<linearGradient id="paint17_linear_337_291" x1="49.141" y1="166.747" x2="209.168" y2="327.046" gradientUnits="userSpaceOnUse">
<stop/>
<stop offset="1" stop-color="white"/>
</linearGradient>
<linearGradient id="paint18_linear_337_291" x1="50.1649" y1="173.271" x2="202.766" y2="326.131" gradientUnits="userSpaceOnUse">
<stop/>
<stop offset="1" stop-color="white"/>
</linearGradient>
<linearGradient id="paint19_linear_337_291" x1="51.6658" y1="181.301" x2="195.334" y2="325.214" gradientUnits="userSpaceOnUse">
<stop/>
<stop offset="1" stop-color="white"/>
</linearGradient>
<linearGradient id="paint20_linear_337_291" x1="53.3165" y1="189.256" x2="188.008" y2="324.177" gradientUnits="userSpaceOnUse">
<stop/>
<stop offset="1" stop-color="white"/>
</linearGradient>
<linearGradient id="paint21_linear_337_291" x1="-13.7445" y1="157.8" x2="164.661" y2="336.509" gradientUnits="userSpaceOnUse">
<stop/>
<stop offset="1" stop-color="white"/>
</linearGradient>
<clipPath id="clip0_337_291">
<rect width="881" height="534" fill="white" transform="translate(-297)"/>
</clipPath>
</defs>
</svg>
